<svg width="11" height="16" viewBox="0 0 11 16" fill="none" xmlns="http://www.w3.org/2000/svg">
  <path d="M3.03125 14.1758C3.03125 14.3711 3.08008 14.5469 3.17773 14.7031L3.70508 15.4648C3.88086 15.7383 4.13477 15.875 4.4668 15.875H6.2832C6.61523 15.875 6.86914 15.7383 7.04492 15.4648L7.57227 14.7031C7.66992 14.5469 7.71875 14.3711 7.71875 14.1758V13.0625H3.03125V14.1758ZM0.21875 6.03125C0.21875 6.67578 0.326172 7.29102 0.541016 7.87695C0.775391 8.44336 1.09766 8.96094 1.50781 9.42969C1.78125 9.74219 2.05469 10.1328 2.32812 10.6016C2.66016 11.1484 2.89453 11.6465 3.03125 12.0957V12.125H7.71875V12.0957C7.85547 11.6465 8.08984 11.1484 8.42188 10.6016C8.69531 10.1328 8.96875 9.74219 9.24219 9.42969C9.65234 8.96094 9.96484 8.44336 10.1797 7.87695C10.4141 7.29102 10.5312 6.67578 10.5312 6.03125C10.5312 5.09375 10.2969 4.23438 9.82812 3.45312C9.35938 2.65234 8.72461 2.02734 7.92383 1.57812C7.14258 1.10938 6.27344 0.875 5.31641 0.875C4.37891 0.875 3.50977 1.11914 2.70898 1.60742C1.94727 2.07617 1.3418 2.71094 0.892578 3.51172C0.443359 4.29297 0.21875 5.13281 0.21875 6.03125ZM5.375 3.6875C4.73047 3.6875 4.17383 3.92188 3.70508 4.39062C3.25586 4.83984 3.03125 5.38672 3.03125 6.03125C3.03125 6.16797 2.98242 6.28516 2.88477 6.38281C2.80664 6.46094 2.69922 6.5 2.5625 6.5C2.42578 6.5 2.30859 6.46094 2.21094 6.38281C2.13281 6.28516 2.09375 6.16797 2.09375 6.03125C2.09375 5.44531 2.24023 4.89844 2.5332 4.39062C2.82617 3.88281 3.22656 3.48242 3.73438 3.18945C4.24219 2.89648 4.78906 2.75 5.375 2.75C5.51172 2.75 5.61914 2.79883 5.69727 2.89648C5.79492 2.97461 5.84375 3.08203 5.84375 3.21875C5.84375 3.35547 5.79492 3.47266 5.69727 3.57031C5.61914 3.64844 5.51172 3.6875 5.375 3.6875Z"
    fill="#C4C4C4" />
</svg>
