<svg width="42" height="42" viewBox="0 0 42 42" fill="none" xmlns="http://www.w3.org/2000/svg">
  <path
    d="M34.8147 16.5179C34.8147 16.9732 34.654 17.4018 34.3326 17.7232L19.7879 32.2679C19.4665 32.5893 19.0112 32.7768 18.5558 32.7768C18.1272 32.7768 17.6719 32.5893 17.3504 32.2679L7.65402 22.5714C7.33259 22.25 7.17188 21.8214 7.17188 21.3661C7.17188 20.9107 7.33259 20.4554 7.65402 20.1339L10.0915 17.7232C10.4129 17.4018 10.8415 17.2143 11.2969 17.2143C11.7522 17.2143 12.1808 17.4018 12.5022 17.7232L18.5558 23.7768L29.4844 12.875C29.8058 12.5536 30.2344 12.3661 30.6897 12.3661C31.1451 12.3661 31.5737 12.5536 31.8951 12.875L34.3326 15.2857C34.654 15.6071 34.8147 16.0625 34.8147 16.5179ZM41.5647 20.8571C41.5647 9.5 32.3504 0.285712 20.9933 0.285712C9.63616 0.285712 0.421875 9.5 0.421875 20.8571C0.421875 32.2143 9.63616 41.4286 20.9933 41.4286C32.3504 41.4286 41.5647 32.2143 41.5647 20.8571Z"
    />
</svg>
