<svg width="18" height="19" viewBox="0 0 18 19" xmlns="http://www.w3.org/2000/svg">
  <path
    d="M17.0357 4.42857C17.3036 4.42857 17.5313 4.52232 17.7188 4.70982C17.9063 4.89732 18 5.125 18 5.39286V17.6071C18 17.875 17.9063 18.1027 17.7188 18.2902C17.5313 18.4777 17.3036 18.5714 17.0357 18.5714H7.39286C7.125 18.5714 6.89732 18.4777 6.70982 18.2902C6.52232 18.1027 6.42857 17.875 6.42857 17.6071V14.7143H0.964286C0.696429 14.7143 0.46875 14.6205 0.28125 14.433C0.09375 14.2455 0 14.0179 0 13.75V7C0 6.73214 0.0669643 6.4375 0.200893 6.11607C0.334821 5.79464 0.495536 5.54018 0.683036 5.35268L4.78125 1.25446C4.96875 1.06696 5.22321 0.906249 5.54464 0.772321C5.86607 0.638392 6.16071 0.571427 6.42857 0.571427H10.6071C10.875 0.571427 11.1027 0.665178 11.2902 0.852678C11.4777 1.04018 11.5714 1.26786 11.5714 1.53571V4.83036C12.0268 4.5625 12.4554 4.42857 12.8571 4.42857H17.0357ZM11.5714 6.56808L8.56808 9.57143H11.5714V6.56808ZM5.14286 2.71094L2.13951 5.71429H5.14286V2.71094ZM7.11161 9.20982L10.2857 6.03571V1.85714H6.42857V6.03571C6.42857 6.30357 6.33482 6.53125 6.14732 6.71875C5.95982 6.90625 5.73214 7 5.46429 7H1.28571V13.4286H6.42857V10.8571C6.42857 10.5893 6.49554 10.2946 6.62946 9.97321C6.76339 9.65179 6.92411 9.39732 7.11161 9.20982ZM16.7143 17.2857V5.71429H12.8571V9.89286C12.8571 10.1607 12.7634 10.3884 12.5759 10.5759C12.3884 10.7634 12.1607 10.8571 11.8929 10.8571H7.71429V17.2857H16.7143Z"
    />
</svg>
