<svg width="72" height="56" viewBox="0 0 72 56" fill="none" xmlns="http://www.w3.org/2000/svg">
  <path
    d="M0.000522614 50C0.000522614 51.6667 0.583856 53.0833 1.75052 54.25C2.91719 55.4167 4.33386 56 6.00052 56H66.0005C67.6672 56 69.0839 55.4167 70.2505 54.25C71.4172 53.0833 72.0005 51.6667 72.0005 50V28H0.000522614V50ZM24.0005 41.5C24.0005 41.0833 24.1255 40.75 24.3755 40.5C24.7089 40.1667 25.0839 40 25.5005 40H42.5005C42.9172 40 43.2505 40.1667 43.5005 40.5C43.8339 40.75 44.0005 41.0833 44.0005 41.5V46.5C44.0005 46.9167 43.8339 47.2917 43.5005 47.625C43.2505 47.875 42.9172 48 42.5005 48H25.5005C25.0839 48 24.7089 47.875 24.3755 47.625C24.1255 47.2917 24.0005 46.9167 24.0005 46.5V41.5ZM8.00052 41.5C8.00052 41.0833 8.12552 40.75 8.37552 40.5C8.70886 40.1667 9.08386 40 9.50052 40H18.5005C18.9172 40 19.2505 40.1667 19.5005 40.5C19.8339 40.75 20.0005 41.0833 20.0005 41.5V46.5C20.0005 46.9167 19.8339 47.2917 19.5005 47.625C19.2505 47.875 18.9172 48 18.5005 48H9.50052C9.08386 48 8.70886 47.875 8.37552 47.625C8.12552 47.2917 8.00052 46.9167 8.00052 46.5V41.5ZM72.0005 6V12H0.000522614V6C0.000522614 4.33333 0.583856 2.91667 1.75052 1.75C2.91719 0.583333 4.33386 0 6.00052 0H66.0005C67.6672 0 69.0839 0.583333 70.2505 1.75C71.4172 2.91667 72.0005 4.33333 72.0005 6Z"
  />
</svg>
