<svg width="80" height="56" viewBox="0 0 80 56" fill="none" xmlns="http://www.w3.org/2000/svg">
  <path
    d="M67.25 24.375C67.75 22.9583 68 21.5 68 20C68 16.6667 66.8333 13.8333 64.5 11.5C62.1667 9.16667 59.3333 8 56 8C53.5833 8 51.375 8.66667 49.375 10C47.625 7 45.2083 4.58333 42.125 2.75C39.0417 0.916667 35.6667 0 32 0C28.4167 0 25.0833 0.916667 22 2.75C18.9167 4.5 16.4583 6.91667 14.625 10C12.875 13.0833 12 16.4167 12 20V21C8.5 22.25 5.625 24.4167 3.375 27.5C1.125 30.5833 0 34.0833 0 38C0 41.25 0.791667 44.25 2.375 47C4.04167 49.75 6.25 51.9167 9 53.5C11.75 55.1667 14.75 56 18 56H64C66.9167 56 69.5833 55.2917 72 53.875C74.5 52.4583 76.4583 50.5417 77.875 48.125C79.2917 45.625 80 42.9167 80 40C80 36.1667 78.7917 32.7917 76.375 29.875C73.9583 26.9583 70.9167 25.125 67.25 24.375ZM49.125 32H41V46C41 46.5833 40.7917 47.0833 40.375 47.5C40.0417 47.8333 39.5833 48 39 48H33C32.4167 48 31.9167 47.8333 31.5 47.5C31.1667 47.0833 31 46.5833 31 46V32H22.875C21.9583 32 21.3333 31.5833 21 30.75C20.6667 29.9167 20.7917 29.2083 21.375 28.625L34.625 15.375C34.9583 15.0417 35.4167 14.875 36 14.875C36.5833 14.875 37.0417 15.0417 37.375 15.375L50.625 28.625C51.2083 29.2083 51.3333 29.9167 51 30.75C50.6667 31.5833 50.0417 32 49.125 32Z"
  />
</svg>
