<svg width="15" height="15" viewBox="0 0 15 15" fill="none" xmlns="http://www.w3.org/2000/svg">
  <path
    d="M14.6172 4.63281L13.3594 5.89062C13.2865 5.96354 13.2044 6 13.1133 6C13.0221 6 12.9492 5.96354 12.8945 5.89062L9.85938 2.85547C9.78646 2.80078 9.75 2.72786 9.75 2.63672C9.75 2.54557 9.78646 2.46354 9.85938 2.39062L11.1172 1.13281C11.3724 0.877604 11.6823 0.75 12.0469 0.75C12.4115 0.75 12.7214 0.877604 12.9766 1.13281L14.6172 2.77344C14.8724 3.02865 15 3.33854 15 3.70312C15 4.06771 14.8724 4.3776 14.6172 4.63281ZM8.76562 3.48438L1.60156 10.6484L1 13.9844C0.963542 14.2031 1.02734 14.3945 1.19141 14.5586C1.35547 14.7227 1.54688 14.7865 1.76562 14.75L5.10156 14.1484L12.2656 6.98438C12.3385 6.91146 12.375 6.82943 12.375 6.73828C12.375 6.64714 12.3385 6.57422 12.2656 6.51953L9.23047 3.48438C9.17578 3.41146 9.10286 3.375 9.01172 3.375C8.92057 3.375 8.83854 3.41146 8.76562 3.48438ZM4.39062 10.0469C4.31771 9.97396 4.28125 9.88281 4.28125 9.77344C4.28125 9.66406 4.31771 9.57292 4.39062 9.5L8.60156 5.28906C8.67448 5.21615 8.76562 5.17969 8.875 5.17969C8.98438 5.17969 9.07552 5.21615 9.14844 5.28906C9.22135 5.36198 9.25781 5.45312 9.25781 5.5625C9.25781 5.67188 9.22135 5.76302 9.14844 5.83594L4.9375 10.0469C4.86458 10.1198 4.77344 10.1562 4.66406 10.1562C4.55469 10.1562 4.46354 10.1198 4.39062 10.0469ZM3.40625 12.3438H4.71875V13.3281L2.96875 13.6562L2.09375 12.7812L2.42188 11.0312H3.40625V12.3438Z"
  />
</svg>
