<svg width="18" height="16" viewBox="0 0 18 16" xmlns="http://www.w3.org/2000/svg">
  <path
    d="M12.6816 3.30664L15.3184 5.94336C15.377 6.00195 15.4062 6.07031 15.4062 6.14844C15.4062 6.22656 15.377 6.29492 15.3184 6.35352L8.90234 12.7695L6.20703 13.0625C6.01172 13.082 5.8457 13.0332 5.70898 12.916C5.5918 12.7793 5.54297 12.6133 5.5625 12.418L5.85547 9.72266L12.2715 3.30664C12.3301 3.24805 12.3984 3.21875 12.4766 3.21875C12.5547 3.21875 12.623 3.24805 12.6816 3.30664ZM17.4277 2.63281L15.9922 1.19727C15.7578 0.982422 15.4844 0.875 15.1719 0.875C14.8594 0.875 14.5957 0.982422 14.3809 1.19727L13.3262 2.25195C13.2676 2.31055 13.2383 2.37891 13.2383 2.45703C13.2383 2.53516 13.2676 2.60352 13.3262 2.66211L15.9629 5.29883C16.0215 5.35742 16.0898 5.38672 16.168 5.38672C16.2461 5.38672 16.3145 5.35742 16.373 5.29883L17.4277 4.24414C17.6426 4.0293 17.75 3.76563 17.75 3.45312C17.75 3.14062 17.6426 2.86719 17.4277 2.63281ZM12.125 11.0117V14H2.75V4.625H9.48828C9.58594 4.625 9.66406 4.5957 9.72266 4.53711L10.8945 3.33594C11.0117 3.23828 11.041 3.12109 10.9824 2.98438C10.9238 2.82813 10.8164 2.75 10.6602 2.75H2.28125C1.89062 2.75 1.55859 2.88672 1.28516 3.16016C1.01172 3.43359 0.875 3.76563 0.875 4.15625V14.4688C0.875 14.8594 1.01172 15.1914 1.28516 15.4648C1.55859 15.7383 1.89062 15.875 2.28125 15.875H12.5938C12.9844 15.875 13.3164 15.7383 13.5898 15.4648C13.8633 15.1914 14 14.8594 14 14.4688V9.83984C14 9.68359 13.9219 9.57617 13.7656 9.51758C13.6289 9.45898 13.5117 9.48828 13.4141 9.60547L12.2422 10.7773C12.1641 10.8359 12.125 10.9141 12.125 11.0117Z"
  />
</svg>
