<svg width="72" height="46" viewBox="0 0 72 46" fill="none" xmlns="http://www.w3.org/2000/svg">
  <path
    d="M71.125 20C67.5417 13.9167 62.6667 9.08333 56.5 5.5C50.25 1.83333 43.4167 0 36 0C28.5833 0 21.75 1.83333 15.5 5.5C9.33333 9.08333 4.45833 13.9167 0.875 20C0.291667 20.9167 0 21.9167 0 23C0 24.0833 0.291667 25.0833 0.875 26C4.45833 32.0833 9.33333 36.9167 15.5 40.5C21.75 44.1667 28.5833 46 36 46C43.4167 46 50.25 44.1667 56.5 40.5C62.6667 36.9167 67.5417 32.0833 71.125 26C71.7083 25.0833 72 24.0833 72 23C72 21.9167 71.7083 20.9167 71.125 20ZM36 40C32.9167 40 30.0833 39.25 27.5 37.75C24.9167 36.1667 22.8333 34.0833 21.25 31.5C19.75 28.9167 19 26.0833 19 23C19 19.9167 19.75 17.0833 21.25 14.5C22.8333 11.9167 24.9167 9.875 27.5 8.375C30.0833 6.79167 32.9167 6 36 6C39.0833 6 41.9167 6.79167 44.5 8.375C47.0833 9.875 49.125 11.9167 50.625 14.5C52.2083 17.0833 53 19.9167 53 23C53 26.0833 52.2083 28.9167 50.625 31.5C49.125 34.0833 47.0833 36.1667 44.5 37.75C41.9167 39.25 39.0833 40 36 40ZM49 23C49 26.5833 47.7083 29.6667 45.125 32.25C42.625 34.75 39.5833 36 36 36C32.4167 36 29.3333 34.75 26.75 32.25C24.25 29.6667 23 26.5833 23 23C23 20.8333 23.5 18.7917 24.5 16.875C24.5 18.375 25 19.6667 26 20.75C27.0833 21.75 28.375 22.25 29.875 22.25C31.375 22.25 32.625 21.75 33.625 20.75C34.7083 19.6667 35.25 18.375 35.25 16.875C35.25 15.375 34.7083 14.125 33.625 13.125C32.625 12.0417 31.375 11.5 29.875 11.5C31.7917 10.5 33.8333 10 36 10C39.5833 10 42.625 11.2917 45.125 13.875C47.7083 16.375 49 19.4167 49 23Z"
  />
</svg>
