<svg width="42" height="42" viewBox="0 0 42 42" fill="none" xmlns="http://www.w3.org/2000/svg">
  <path
    d="M20.9933 0.285712C9.63616 0.285712 0.421875 9.5 0.421875 20.8571C0.421875 32.2143 9.63616 41.4286 20.9933 41.4286C32.3504 41.4286 41.5647 32.2143 41.5647 20.8571C41.5647 9.5 32.3504 0.285712 20.9933 0.285712ZM24.4219 33.6875C24.4219 34.1696 24.0469 34.5714 23.5915 34.5714H18.4487C17.9665 34.5714 17.5647 34.1696 17.5647 33.6875V28.5982C17.5647 28.1161 17.9665 27.7143 18.4487 27.7143H23.5915C24.0469 27.7143 24.4219 28.1161 24.4219 28.5982V33.6875ZM24.3683 24.4732C24.3415 24.8482 23.9397 25.1429 23.4576 25.1429H18.5022C17.9933 25.1429 17.5915 24.8482 17.5915 24.4732L17.1362 7.83928C17.1362 7.65178 17.2165 7.46428 17.404 7.35714C17.5647 7.22321 17.8058 7.14285 18.0469 7.14285H23.9397C24.1808 7.14285 24.4219 7.22321 24.5826 7.35714C24.7701 7.46428 24.8504 7.65178 24.8504 7.83928L24.3683 24.4732Z"
  />
</svg>
