<svg width="20" height="26" viewBox="0 0 20 26" fill="none" xmlns="http://www.w3.org/2000/svg">
  <path
    d="M13.1 7.75V2.5C13.1 2.09375 13.2406 1.75 13.5219 1.46875C13.8344 1.15625 14.1937 1 14.6 1C15.0062 1 15.35 1.15625 15.6312 1.46875C15.9437 1.75 16.1 2.09375 16.1 2.5V7.75H13.1ZM18.35 8.5H1.85C1.63125 8.5 1.44375 8.57812 1.2875 8.73438C1.1625 8.85938 1.1 9.03125 1.1 9.25V10.75C1.1 10.9688 1.1625 11.1562 1.2875 11.3125C1.44375 11.4375 1.63125 11.5 1.85 11.5H2.6V13C2.6 14.8125 3.1625 16.4062 4.2875 17.7812C5.44375 19.1562 6.88125 20.0156 8.6 20.3594V25H11.6V20.3594C13.3187 20.0156 14.7406 19.1562 15.8656 17.7812C17.0219 16.4062 17.6 14.8125 17.6 13V11.5H18.35C18.5687 11.5 18.7406 11.4375 18.8656 11.3125C19.0219 11.1562 19.1 10.9688 19.1 10.75V9.25C19.1 9.03125 19.0219 8.85938 18.8656 8.73438C18.7406 8.57812 18.5687 8.5 18.35 8.5ZM7.1 7.75V2.5C7.1 2.09375 6.94375 1.75 6.63125 1.46875C6.35 1.15625 6.00625 1 5.6 1C5.19375 1 4.83437 1.15625 4.52187 1.46875C4.24062 1.75 4.1 2.09375 4.1 2.5V7.75H7.1Z"
  />
  <path
    d="M13.1 7.75H12.85V8H13.1V7.75ZM15.6312 1.46875L15.4454 1.63599L15.4542 1.64577L15.464 1.65457L15.6312 1.46875ZM16.1 7.75V8H16.35V7.75H16.1ZM1.2875 11.3125L1.09228 11.4687L1.10963 11.4904L1.13132 11.5077L1.2875 11.3125ZM2.6 11.5H2.85V11.25H2.6V11.5ZM4.2875 17.7812L4.09399 17.9396L4.09616 17.9422L4.2875 17.7812ZM8.6 20.3594H8.85V20.1544L8.64903 20.1142L8.6 20.3594ZM8.6 25H8.35V25.25H8.6V25ZM11.6 25V25.25H11.85V25H11.6ZM11.6 20.3594L11.551 20.1142L11.35 20.1544V20.3594H11.6ZM15.8656 17.7812L15.6743 17.6203L15.6721 17.6229L15.8656 17.7812ZM17.6 11.5V11.25H17.35V11.5H17.6ZM18.8656 8.73438L18.6704 8.89055L18.6878 8.91224L18.7094 8.92959L18.8656 8.73438ZM7.1 7.75V8H7.35V7.75H7.1ZM6.63125 1.46875L6.44542 1.63599L6.45423 1.64577L6.46401 1.65457L6.63125 1.46875ZM4.1 7.75H3.85V8H4.1V7.75ZM13.35 7.75V2.5H12.85V7.75H13.35ZM13.35 2.5C13.35 2.15847 13.4654 1.87878 13.6987 1.64553L13.3451 1.29197C13.0159 1.62122 12.85 2.02903 12.85 2.5H13.35ZM13.6987 1.64553C13.9688 1.37537 14.2662 1.25 14.6 1.25V0.75C14.1213 0.75 13.6999 0.937129 13.3451 1.29197L13.6987 1.64553ZM14.6 1.25C14.9326 1.25 15.2097 1.37408 15.4454 1.63599L15.8171 1.30151C15.4903 0.938419 15.0799 0.75 14.6 0.75V1.25ZM15.464 1.65457C15.7259 1.89029 15.85 2.16738 15.85 2.5H16.35C16.35 2.02012 16.1616 1.60971 15.7985 1.28293L15.464 1.65457ZM15.85 2.5V7.75H16.35V2.5H15.85ZM16.1 7.5H13.1V8H16.1V7.5ZM18.35 8.25H1.85V8.75H18.35V8.25ZM1.85 8.25C1.56419 8.25 1.31332 8.355 1.11072 8.5576L1.46428 8.91115C1.57418 8.80125 1.69831 8.75 1.85 8.75V8.25ZM1.11072 8.5576C0.92823 8.74009 0.849998 8.98163 0.849998 9.25H1.35C1.35 9.08087 1.39677 8.97866 1.46428 8.91115L1.11072 8.5576ZM0.849998 9.25V10.75H1.35V9.25H0.849998ZM0.849998 10.75C0.849998 11.0199 0.928448 11.2639 1.09228 11.4687L1.48272 11.1563C1.39655 11.0486 1.35 10.9176 1.35 10.75H0.849998ZM1.13132 11.5077C1.33612 11.6715 1.58012 11.75 1.85 11.75V11.25C1.68238 11.25 1.55138 11.2035 1.44367 11.1173L1.13132 11.5077ZM1.85 11.75H2.6V11.25H1.85V11.75ZM2.35 11.5V13H2.85V11.5H2.35ZM2.35 13C2.35 14.8689 2.93167 16.5189 4.09401 17.9396L4.48099 17.6229C3.39333 16.2936 2.85 14.7561 2.85 13H2.35ZM4.09616 17.9422C5.28793 19.3594 6.77511 20.2493 8.55097 20.6045L8.64903 20.1142C6.98738 19.7819 5.59957 18.9531 4.47884 17.6203L4.09616 17.9422ZM8.35 20.3594V25H8.85V20.3594H8.35ZM8.6 25.25H11.6V24.75H8.6V25.25ZM11.85 25V20.3594H11.35V25H11.85ZM11.649 20.6045C13.4254 20.2493 14.898 19.3587 16.0591 17.9396L15.6721 17.6229C14.5832 18.9538 13.2121 19.782 11.551 20.1142L11.649 20.6045ZM16.057 17.9422C17.2515 16.5217 17.85 14.8708 17.85 13H17.35C17.35 14.7542 16.7923 16.2908 15.6743 17.6203L16.057 17.9422ZM17.85 13V11.5H17.35V13H17.85ZM17.6 11.75H18.35V11.25H17.6V11.75ZM18.35 11.75C18.6184 11.75 18.8599 11.6718 19.0424 11.4893L18.6889 11.1357C18.6213 11.2032 18.5191 11.25 18.35 11.25V11.75ZM19.0424 11.4893C19.245 11.2867 19.35 11.0358 19.35 10.75H18.85C18.85 10.9017 18.7987 11.0258 18.6889 11.1357L19.0424 11.4893ZM19.35 10.75V9.25H18.85V10.75H19.35ZM19.35 9.25C19.35 8.96339 19.2434 8.71643 19.0218 8.53916L18.7094 8.92959C18.8004 9.00232 18.85 9.09911 18.85 9.25H19.35ZM19.0608 8.5782C18.8836 8.35661 18.6366 8.25 18.35 8.25V8.75C18.5009 8.75 18.5977 8.79964 18.6704 8.89055L19.0608 8.5782ZM7.35 7.75V2.5H6.85V7.75H7.35ZM7.35 2.5C7.35 2.02012 7.16158 1.60971 6.79849 1.28293L6.46401 1.65457C6.72592 1.89029 6.85 2.16738 6.85 2.5H7.35ZM6.81707 1.30151C6.49029 0.938419 6.07988 0.75 5.6 0.75V1.25C5.93261 1.25 6.20971 1.37408 6.44542 1.63599L6.81707 1.30151ZM5.6 0.75C5.12129 0.75 4.69994 0.937129 4.3451 1.29197L4.69865 1.64553C4.96881 1.37537 5.26621 1.25 5.6 1.25V0.75ZM4.3451 1.29197C4.01585 1.62122 3.85 2.02903 3.85 2.5H4.35C4.35 2.15847 4.4654 1.87878 4.69865 1.64553L4.3451 1.29197ZM3.85 2.5V7.75H4.35V2.5H3.85ZM4.1 8H7.1V7.5H4.1V8Z"
  />
</svg>
