<svg width="13" height="8" viewBox="0 0 13 8" fill="none" xmlns="http://www.w3.org/2000/svg">
  <path
    d="M6.96484 0.332031L12.2695 5.63672C12.3971 5.76432 12.4609 5.91927 12.4609 6.10156C12.4609 6.28385 12.3971 6.4388 12.2695 6.56641L11.668 7.16797C11.5404 7.29557 11.3854 7.36849 11.2031 7.38672C11.0208 7.38672 10.8659 7.32292 10.7383 7.19531L6.5 2.95703L2.26172 7.19531C2.13411 7.32292 1.97917 7.38672 1.79688 7.38672C1.61458 7.36849 1.45964 7.29557 1.33203 7.16797L0.730469 6.56641C0.602865 6.4388 0.539062 6.28385 0.539062 6.10156C0.539062 5.91927 0.602865 5.76432 0.730469 5.63672L6.03516 0.332031C6.16276 0.186198 6.31771 0.113281 6.5 0.113281C6.68229 0.113281 6.83724 0.186198 6.96484 0.332031Z"
  />
</svg>
