<svg width="14" height="15" viewBox="0 0 14 15" fill="none" xmlns="http://www.w3.org/2000/svg">
  <path
    d="M13.7812 7.75C13.7812 8.97135 13.4714 10.1016 12.8516 11.1406C12.25 12.1797 11.4297 13 10.3906 13.6016C9.35156 14.2214 8.22135 14.5312 7 14.5312C5.77865 14.5312 4.64844 14.2214 3.60938 13.6016C2.57031 13 1.74089 12.1797 1.12109 11.1406C0.519531 10.1016 0.21875 8.97135 0.21875 7.75C0.21875 6.52865 0.519531 5.39844 1.12109 4.35938C1.74089 3.32031 2.57031 2.5 3.60938 1.89844C4.64844 1.27865 5.77865 0.96875 7 0.96875C8.22135 0.96875 9.35156 1.27865 10.3906 1.89844C11.4297 2.5 12.25 3.32031 12.8516 4.35938C13.4714 5.39844 13.7812 6.52865 13.7812 7.75ZM6.20703 11.332L11.2383 6.30078C11.3294 6.22786 11.375 6.1276 11.375 6C11.375 5.8724 11.3294 5.77214 11.2383 5.69922L10.6367 5.07031C10.5456 4.97917 10.4362 4.93359 10.3086 4.93359C10.1992 4.93359 10.099 4.97917 10.0078 5.07031L5.90625 9.17188L3.99219 7.25781C3.90104 7.16667 3.79167 7.12109 3.66406 7.12109C3.55469 7.12109 3.45443 7.16667 3.36328 7.25781L2.76172 7.88672C2.67057 7.95964 2.625 8.0599 2.625 8.1875C2.625 8.3151 2.67057 8.41536 2.76172 8.48828L5.60547 11.332C5.67839 11.4232 5.77865 11.4688 5.90625 11.4688C6.03385 11.4688 6.13411 11.4232 6.20703 11.332Z"
  />
</svg>
