<svg width="28" height="22" viewBox="0 0 28 22"  xmlns="http://www.w3.org/2000/svg">
<path d="M14.1 0.5C11.6625 0.5 9.39687 1.10938 7.30312 2.32812C5.24062 3.51562 3.61562 5.14062 2.42812 7.20312C1.20937 9.29688 0.599998 11.5625 0.599998 14C0.599998 16.4375 1.20937 18.7031 2.42812 20.7969C2.55312 21.0156 2.725 21.1875 2.94375 21.3125C3.19375 21.4375 3.45937 21.5 3.74062 21.5H24.5062C24.7562 21.5 24.9906 21.4375 25.2094 21.3125C25.4594 21.1875 25.6469 21.0156 25.7719 20.7969C26.9906 18.7031 27.6 16.4375 27.6 14C27.6 11.5625 26.9906 9.29688 25.7719 7.20312C24.5844 5.14062 22.9594 3.51562 20.8969 2.32812C18.8031 1.10938 16.5375 0.5 14.1 0.5ZM14.1 3.5C14.4437 3.5 14.7406 3.60937 14.9906 3.82812C15.2406 4.01562 15.4125 4.28125 15.5062 4.625L15.3656 4.90625L14.9437 6.21875C14.6625 6.40625 14.3812 6.5 14.1 6.5C13.6937 6.5 13.3344 6.35938 13.0219 6.07812C12.7406 5.76562 12.6 5.40625 12.6 5C12.6 4.59375 12.7406 4.25 13.0219 3.96875C13.3344 3.65625 13.6937 3.5 14.1 3.5ZM5.1 17C4.69375 17 4.33437 16.8594 4.02187 16.5781C3.74062 16.2656 3.6 15.9062 3.6 15.5C3.6 15.0938 3.74062 14.75 4.02187 14.4688C4.33437 14.1562 4.69375 14 5.1 14C5.50625 14 5.85 14.1562 6.13125 14.4688C6.44375 14.75 6.6 15.0938 6.6 15.5C6.6 15.9062 6.44375 16.2656 6.13125 16.5781C5.85 16.8594 5.50625 17 5.1 17ZM7.35 9.5C6.94375 9.5 6.58437 9.35938 6.27187 9.07812C5.99062 8.76562 5.85 8.40625 5.85 8C5.85 7.59375 5.99062 7.25 6.27187 6.96875C6.58437 6.65625 6.94375 6.5 7.35 6.5C7.75625 6.5 8.1 6.65625 8.38125 6.96875C8.69375 7.25 8.85 7.59375 8.85 8C8.85 8.40625 8.69375 8.76562 8.38125 9.07812C8.1 9.35938 7.75625 9.5 7.35 9.5ZM18.9281 6.125L16.0219 14.75C16.7406 15.3438 17.1 16.0938 17.1 17C17.1 17.5312 16.9594 18.0312 16.6781 18.5H11.5219C11.2406 18.0312 11.1 17.5312 11.1 17C11.1 16.2188 11.3656 15.5469 11.8969 14.9844C12.4594 14.3906 13.1312 14.0625 13.9125 14L16.7719 5.375C16.8656 5.09375 17.0531 4.89063 17.3344 4.76562C17.6156 4.60938 17.8969 4.57812 18.1781 4.67188C18.4906 4.76562 18.7094 4.95312 18.8344 5.23438C18.9906 5.51562 19.0219 5.8125 18.9281 6.125ZM19.5844 8.79688L20.3344 6.59375C20.5219 6.53125 20.6937 6.5 20.85 6.5C21.2562 6.5 21.6 6.65625 21.8812 6.96875C22.1937 7.25 22.35 7.59375 22.35 8C22.35 8.40625 22.1937 8.76562 21.8812 9.07812C21.6 9.35938 21.2562 9.5 20.85 9.5C20.3187 9.5 19.8969 9.26562 19.5844 8.79688ZM23.1 17C22.6937 17 22.3344 16.8594 22.0219 16.5781C21.7406 16.2656 21.6 15.9062 21.6 15.5C21.6 15.0938 21.7406 14.75 22.0219 14.4688C22.3344 14.1562 22.6937 14 23.1 14C23.5062 14 23.85 14.1562 24.1312 14.4688C24.4437 14.75 24.6 15.0938 24.6 15.5C24.6 15.9062 24.4437 16.2656 24.1312 16.5781C23.85 16.8594 23.5062 17 23.1 17Z" />
<path d="M7.30312 2.32812L7.42787 2.54478L7.42889 2.54419L7.30312 2.32812ZM2.42812 7.20312L2.64419 7.32889L2.64478 7.32787L2.42812 7.20312ZM2.42812 20.7969L2.64519 20.6728L2.64418 20.6711L2.42812 20.7969ZM2.94375 21.3125L2.81952 21.5299L2.83194 21.5361L2.94375 21.3125ZM25.2094 21.3125L25.0974 21.0885L25.0853 21.0954L25.2094 21.3125ZM25.7719 20.7969L25.5558 20.6711L25.5548 20.6728L25.7719 20.7969ZM25.7719 7.20312L25.5552 7.32787L25.5558 7.32889L25.7719 7.20312ZM20.8969 2.32812L20.7711 2.54419L20.7721 2.54478L20.8969 2.32812ZM14.9906 3.82812L14.826 4.01627L14.8331 4.02247L14.8406 4.02812L14.9906 3.82812ZM15.5062 4.625L15.7299 4.7368L15.7726 4.65137L15.7474 4.55922L15.5062 4.625ZM15.3656 4.90625L15.142 4.79445L15.1335 4.81155L15.1276 4.82975L15.3656 4.90625ZM14.9437 6.21875L15.0824 6.42676L15.155 6.37835L15.1818 6.29525L14.9437 6.21875ZM13.0219 6.07812L12.836 6.24537L12.8449 6.25515L12.8546 6.26395L13.0219 6.07812ZM4.02187 16.5781L3.83605 16.7454L3.84485 16.7551L3.85463 16.7639L4.02187 16.5781ZM6.13125 14.4688L5.94542 14.636L5.95423 14.6458L5.96401 14.6546L6.13125 14.4688ZM6.27187 9.07812L6.08605 9.24537L6.09485 9.25515L6.10463 9.26395L6.27187 9.07812ZM8.38125 6.96875L8.19542 7.13599L8.20423 7.14577L8.21401 7.15457L8.38125 6.96875ZM18.9281 6.125L19.1652 6.20487L19.1676 6.19684L18.9281 6.125ZM16.0219 14.75L15.785 14.6702L15.73 14.8332L15.8627 14.9427L16.0219 14.75ZM16.6781 18.5V18.75H16.8197L16.8925 18.6286L16.6781 18.5ZM11.5219 18.5L11.3075 18.6286L11.3803 18.75H11.5219V18.5ZM11.8969 14.9844L11.7154 14.8124L11.7151 14.8127L11.8969 14.9844ZM13.9125 14L13.9324 14.2492L14.0976 14.236L14.1498 14.0787L13.9125 14ZM16.7719 5.375L16.5347 5.29594L16.5346 5.29633L16.7719 5.375ZM17.3344 4.76562L17.4359 4.99408L17.4461 4.98956L17.4558 4.98416L17.3344 4.76562ZM18.1781 4.67188L18.099 4.90915L18.1063 4.91133L18.1781 4.67188ZM18.8344 5.23438L18.6059 5.33591L18.6104 5.34607L18.6158 5.35579L18.8344 5.23438ZM19.5844 8.79688L19.3477 8.71631L19.308 8.83299L19.3764 8.93555L19.5844 8.79688ZM20.3344 6.59375L20.2553 6.35658L20.1377 6.39579L20.0977 6.51318L20.3344 6.59375ZM21.8812 6.96875L21.6954 7.13599L21.7042 7.14577L21.714 7.15457L21.8812 6.96875ZM22.0219 16.5781L21.8361 16.7454L21.8448 16.7551L21.8546 16.7639L22.0219 16.5781ZM24.1312 14.4688L23.9454 14.636L23.9542 14.6458L23.964 14.6546L24.1312 14.4688ZM14.1 0.25C11.6186 0.25 9.30954 0.870942 7.17736 2.11206L7.42889 2.54419C9.48421 1.34781 11.7064 0.75 14.1 0.75V0.25ZM7.17838 2.11147C5.07767 3.32097 3.42097 4.97768 2.21147 7.07838L2.64478 7.32787C3.81028 5.30357 5.40357 3.71028 7.42786 2.54478L7.17838 2.11147ZM2.21206 7.07736C0.97094 9.20954 0.349998 11.5186 0.349998 14H0.849998C0.849998 11.6064 1.44781 9.38421 2.64418 7.32889L2.21206 7.07736ZM0.349998 14C0.349998 16.4814 0.97094 18.7905 2.21206 20.9226L2.64418 20.6711C1.44781 18.6158 0.849998 16.3936 0.849998 14H0.349998ZM2.21106 20.9209C2.35821 21.1784 2.56221 21.3824 2.81971 21.5296L3.06778 21.0954C2.88779 20.9926 2.74804 20.8528 2.64518 20.6728L2.21106 20.9209ZM2.83194 21.5361C3.11688 21.6786 3.42081 21.75 3.74062 21.75V21.25C3.49793 21.25 3.27061 21.1964 3.05555 21.0889L2.83194 21.5361ZM3.74062 21.75H24.5062V21.25H3.74062V21.75ZM24.5062 21.75C24.8001 21.75 25.0772 21.676 25.3334 21.5296L25.0853 21.0954C24.9041 21.199 24.7124 21.25 24.5062 21.25V21.75ZM25.3212 21.5361C25.6103 21.3915 25.8368 21.1871 25.9889 20.9209L25.5548 20.6728C25.4569 20.8441 25.3084 20.9835 25.0976 21.0889L25.3212 21.5361ZM25.9879 20.9226C27.2291 18.7905 27.85 16.4814 27.85 14H27.35C27.35 16.3936 26.7522 18.6158 25.5558 20.6711L25.9879 20.9226ZM27.85 14C27.85 11.5186 27.2291 9.20954 25.9879 7.07736L25.5558 7.32889C26.7522 9.38421 27.35 11.6064 27.35 14H27.85ZM25.9885 7.07838C24.779 4.97768 23.1223 3.32097 21.0216 2.11147L20.7721 2.54478C22.7964 3.71028 24.3897 5.30357 25.5552 7.32787L25.9885 7.07838ZM21.0226 2.11206C18.8905 0.870942 16.5814 0.25 14.1 0.25V0.75C16.4936 0.75 18.7158 1.34781 20.7711 2.54419L21.0226 2.11206ZM14.1 3.75C14.3855 3.75 14.6233 3.83889 14.826 4.01627L15.1553 3.63998C14.858 3.37986 14.502 3.25 14.1 3.25V3.75ZM14.8406 4.02812C15.04 4.17767 15.1838 4.39278 15.2651 4.69078L15.7474 4.55922C15.6412 4.16972 15.4412 3.85358 15.1406 3.62813L14.8406 4.02812ZM15.2826 4.5132L15.142 4.79445L15.5892 5.01805L15.7299 4.7368L15.2826 4.5132ZM15.1276 4.82975L14.7057 6.14225L15.1818 6.29525L15.6036 4.98275L15.1276 4.82975ZM14.8051 6.01074C14.5565 6.17647 14.3227 6.25 14.1 6.25V6.75C14.4398 6.75 14.7685 6.63603 15.0824 6.42676L14.8051 6.01074ZM14.1 6.25C13.7578 6.25 13.4575 6.13382 13.1891 5.8923L12.8546 6.26395C13.2113 6.58493 13.6297 6.75 14.1 6.75V6.25ZM13.2077 5.91088C12.9662 5.64253 12.85 5.34216 12.85 5H12.35C12.35 5.47034 12.5151 5.88872 12.836 6.24537L13.2077 5.91088ZM12.85 5C12.85 4.65847 12.9654 4.37878 13.1987 4.14553L12.8451 3.79197C12.5159 4.12122 12.35 4.52903 12.35 5H12.85ZM13.1987 4.14553C13.4688 3.87537 13.7662 3.75 14.1 3.75V3.25C13.6213 3.25 13.1999 3.43713 12.8451 3.79197L13.1987 4.14553ZM5.1 16.75C4.75784 16.75 4.45747 16.6338 4.18911 16.3923L3.85463 16.7639C4.21128 17.0849 4.62966 17.25 5.1 17.25V16.75ZM4.2077 16.4109C3.96618 16.1425 3.85 15.8422 3.85 15.5H3.35C3.35 15.9703 3.51507 16.3887 3.83605 16.7454L4.2077 16.4109ZM3.85 15.5C3.85 15.1585 3.9654 14.8788 4.19865 14.6455L3.8451 14.292C3.51585 14.6212 3.35 15.029 3.35 15.5H3.85ZM4.19865 14.6455C4.46881 14.3754 4.76621 14.25 5.1 14.25V13.75C4.62129 13.75 4.19994 13.9371 3.8451 14.292L4.19865 14.6455ZM5.1 14.25C5.43261 14.25 5.70971 14.3741 5.94542 14.636L6.31707 14.3015C5.99029 13.9384 5.57988 13.75 5.1 13.75V14.25ZM5.96401 14.6546C6.22592 14.8903 6.35 15.1674 6.35 15.5H6.85C6.85 15.0201 6.66158 14.6097 6.29849 14.2829L5.96401 14.6546ZM6.35 15.5C6.35 15.8338 6.22463 16.1312 5.95447 16.4013L6.30803 16.7549C6.66287 16.4001 6.85 15.9787 6.85 15.5H6.35ZM5.95447 16.4013C5.72122 16.6346 5.44153 16.75 5.1 16.75V17.25C5.57096 17.25 5.97878 17.0841 6.30803 16.7549L5.95447 16.4013ZM7.35 9.25C7.00784 9.25 6.70747 9.13382 6.43911 8.8923L6.10463 9.26395C6.46128 9.58493 6.87966 9.75 7.35 9.75V9.25ZM6.4577 8.91088C6.21618 8.64253 6.1 8.34216 6.1 8H5.6C5.6 8.47034 5.76507 8.88872 6.08605 9.24537L6.4577 8.91088ZM6.1 8C6.1 7.65847 6.2154 7.37878 6.44865 7.14553L6.0951 6.79197C5.76585 7.12122 5.6 7.52903 5.6 8H6.1ZM6.44865 7.14553C6.71881 6.87537 7.01621 6.75 7.35 6.75V6.25C6.87129 6.25 6.44994 6.43713 6.0951 6.79197L6.44865 7.14553ZM7.35 6.75C7.68261 6.75 7.95971 6.87408 8.19542 7.13599L8.56707 6.80151C8.24029 6.43842 7.82988 6.25 7.35 6.25V6.75ZM8.21401 7.15457C8.47592 7.39029 8.6 7.66738 8.6 8H9.1C9.1 7.52012 8.91158 7.10971 8.54849 6.78293L8.21401 7.15457ZM8.6 8C8.6 8.33379 8.47463 8.63119 8.20447 8.90135L8.55803 9.2549C8.91287 8.90006 9.1 8.47871 9.1 8H8.6ZM8.20447 8.90135C7.97122 9.1346 7.69153 9.25 7.35 9.25V9.75C7.82096 9.75 8.22878 9.58415 8.55803 9.2549L8.20447 8.90135ZM18.6912 6.04517L15.785 14.6702L16.2588 14.8298L19.165 6.20483L18.6912 6.04517ZM15.8627 14.9427C16.5258 15.4906 16.85 16.1708 16.85 17H17.35C17.35 16.0167 16.9554 15.1969 16.1811 14.5573L15.8627 14.9427ZM16.85 17C16.85 17.4846 16.7224 17.9403 16.4637 18.3714L16.8925 18.6286C17.1964 18.1222 17.35 17.5779 17.35 17H16.85ZM16.6781 18.25H11.5219V18.75H16.6781V18.25ZM11.7362 18.3714C11.4776 17.9403 11.35 17.4846 11.35 17H10.85C10.85 17.5779 11.0036 18.1222 11.3075 18.6286L11.7362 18.3714ZM11.35 17C11.35 16.2819 11.5917 15.6716 12.0786 15.156L11.7151 14.8127C11.1396 15.4221 10.85 16.1556 10.85 17H11.35ZM12.0784 15.1563C12.6004 14.6052 13.2156 14.3066 13.9324 14.2492L13.8926 13.7508C13.0469 13.8184 12.3183 14.176 11.7154 14.8124L12.0784 15.1563ZM14.1498 14.0787L17.0092 5.45367L16.5346 5.29633L13.6752 13.9213L14.1498 14.0787ZM17.009 5.45406C17.0796 5.24228 17.2161 5.09178 17.4359 4.99408L17.2328 4.53717C16.8902 4.68947 16.6516 4.94522 16.5347 5.29594L17.009 5.45406ZM17.4558 4.98416C17.6816 4.8587 17.8904 4.83948 18.0991 4.90905L18.2572 4.4347C17.9034 4.31677 17.5496 4.36005 17.213 4.54709L17.4558 4.98416ZM18.1063 4.91133C18.3537 4.98557 18.5125 5.12569 18.6059 5.33591L19.0628 5.13284C18.9063 4.78056 18.6275 4.54568 18.25 4.43242L18.1063 4.91133ZM18.6158 5.35579C18.7388 5.57715 18.7633 5.80424 18.6887 6.05316L19.1676 6.19684C19.2804 5.82076 19.2424 5.4541 19.0529 5.11296L18.6158 5.35579ZM19.821 8.87744L20.571 6.67432L20.0977 6.51318L19.3477 8.71631L19.821 8.87744ZM20.4134 6.83092C20.5819 6.77477 20.7267 6.75 20.85 6.75V6.25C20.6608 6.25 20.4619 6.28773 20.2553 6.35658L20.4134 6.83092ZM20.85 6.75C21.1826 6.75 21.4597 6.87408 21.6954 7.13599L22.0671 6.80151C21.7403 6.43842 21.3299 6.25 20.85 6.25V6.75ZM21.714 7.15457C21.9759 7.39029 22.1 7.66738 22.1 8H22.6C22.6 7.52012 22.4116 7.10971 22.0485 6.78293L21.714 7.15457ZM22.1 8C22.1 8.33379 21.9746 8.63119 21.7045 8.90135L22.058 9.2549C22.4129 8.90006 22.6 8.47871 22.6 8H22.1ZM21.7045 8.90135C21.4712 9.1346 21.1915 9.25 20.85 9.25V9.75C21.321 9.75 21.7288 9.58415 22.058 9.2549L21.7045 8.90135ZM20.85 9.25C20.4082 9.25 20.0619 9.06241 19.7924 8.6582L19.3764 8.93555C19.7319 9.46884 20.2293 9.75 20.85 9.75V9.25ZM23.1 16.75C22.7578 16.75 22.4575 16.6338 22.1891 16.3923L21.8546 16.7639C22.2113 17.0849 22.6297 17.25 23.1 17.25V16.75ZM22.2077 16.4109C21.9662 16.1425 21.85 15.8422 21.85 15.5H21.35C21.35 15.9703 21.5151 16.3887 21.8361 16.7454L22.2077 16.4109ZM21.85 15.5C21.85 15.1585 21.9654 14.8788 22.1986 14.6455L21.8451 14.292C21.5159 14.6212 21.35 15.029 21.35 15.5H21.85ZM22.1986 14.6455C22.4688 14.3754 22.7662 14.25 23.1 14.25V13.75C22.6213 13.75 22.1999 13.9371 21.8451 14.292L22.1986 14.6455ZM23.1 14.25C23.4326 14.25 23.7097 14.3741 23.9454 14.636L24.3171 14.3015C23.9903 13.9384 23.5799 13.75 23.1 13.75V14.25ZM23.964 14.6546C24.2259 14.8903 24.35 15.1674 24.35 15.5H24.85C24.85 15.0201 24.6616 14.6097 24.2985 14.2829L23.964 14.6546ZM24.35 15.5C24.35 15.8338 24.2246 16.1312 23.9545 16.4013L24.308 16.7549C24.6629 16.4001 24.85 15.9787 24.85 15.5H24.35ZM23.9545 16.4013C23.7212 16.6346 23.4415 16.75 23.1 16.75V17.25C23.571 17.25 23.9788 17.0841 24.308 16.7549L23.9545 16.4013Z" />
</svg>
