<svg width="40" height="36" viewBox="0 0 40 36" fill="none" xmlns="http://www.w3.org/2000/svg">
<path fill-rule="evenodd" clip-rule="evenodd" d="M11.4629 32.766L16.6634 34.149V32.3404L17.0879 31.9149H20.0596V34.0426V35.5319H16.8756L12.9487 33.8298L11.4629 32.766Z" fill="#CDBDB2"/>
<path fill-rule="evenodd" clip-rule="evenodd" d="M28.4438 32.766L23.3495 34.149V32.3404L22.925 31.9149H19.9533V34.0426V35.5319H23.1372L27.0641 33.8298L28.4438 32.766Z" fill="#CDBDB2"/>
<path fill-rule="evenodd" clip-rule="evenodd" d="M17.0876 28.8298L16.6631 32.3404L17.1937 31.9149H22.7126L23.3494 32.3404L22.9249 28.8298L22.0758 28.2979L17.8305 28.4042L17.0876 28.8298Z" fill="#393939"/>
<path fill-rule="evenodd" clip-rule="evenodd" d="M14.2217 5.10638L16.7688 11.0638L17.9363 28.4043H22.0754L23.349 11.0638L25.6839 5.10638H14.2217Z" fill="#F89C35"/>
<path fill-rule="evenodd" clip-rule="evenodd" d="M3.07814 18.1915L0.106445 26.8085L7.53569 26.383H12.3116V22.6596L12.0994 15L11.038 15.8511L3.07814 18.1915Z" fill="#F89D35"/>
<path fill-rule="evenodd" clip-rule="evenodd" d="M8.70312 19.1489L17.406 19.3617L16.4508 23.8298L12.3116 22.7659L8.70312 19.1489Z" fill="#D87C30"/>
<path fill-rule="evenodd" clip-rule="evenodd" d="M8.70312 19.2553L12.3116 22.6596V26.0638L8.70312 19.2553Z" fill="#EA8D3A"/>
<path fill-rule="evenodd" clip-rule="evenodd" d="M12.3115 22.766L16.5568 23.8298L17.9365 28.4043L16.9813 28.9362L12.3115 26.1702V22.766Z" fill="#F89D35"/>
<path fill-rule="evenodd" clip-rule="evenodd" d="M12.3119 26.1702L11.4629 32.766L17.0879 28.8298L12.3119 26.1702Z" fill="#EB8F35"/>
<path fill-rule="evenodd" clip-rule="evenodd" d="M17.406 19.3617L17.9367 28.4042L16.3447 23.7766L17.406 19.3617Z" fill="#EA8E3A"/>
<path fill-rule="evenodd" clip-rule="evenodd" d="M7.4292 26.2766L12.3113 26.1702L11.4622 32.766L7.4292 26.2766Z" fill="#D87C30"/>
<path fill-rule="evenodd" clip-rule="evenodd" d="M2.44135 35.6383L11.4626 32.766L7.42956 26.2766L0.106445 26.8085L2.44135 35.6383Z" fill="#EB8F35"/>
<path fill-rule="evenodd" clip-rule="evenodd" d="M16.7692 11.0638L12.2055 14.8936L8.70312 19.1489L17.406 19.4681L16.7692 11.0638Z" fill="#E8821E"/>
<path fill-rule="evenodd" clip-rule="evenodd" d="M11.4629 32.7659L17.0879 28.8298L16.6634 32.234V34.1489L12.8426 33.4042L11.4629 32.7659Z" fill="#DFCEC3"/>
<path fill-rule="evenodd" clip-rule="evenodd" d="M28.4438 32.7659L22.925 28.8298L23.3495 32.234V34.1489L27.1703 33.4042L28.4438 32.7659Z" fill="#DFCEC3"/>
<path fill-rule="evenodd" clip-rule="evenodd" d="M15.0708 21.2766L16.2383 23.7234L12.0991 22.6596L15.0708 21.2766Z" fill="#393939"/>
<path fill-rule="evenodd" clip-rule="evenodd" d="M2.33496 0.106384L16.7689 11.0638L14.3279 5.10638L2.33496 0.106384Z" fill="#E88F35"/>
<path fill-rule="evenodd" clip-rule="evenodd" d="M2.33518 0.106384L0.424805 5.95745L1.48613 12.3404L0.743201 12.766L1.80452 13.7234L0.955465 14.4681L2.12292 15.5319L1.37999 16.1702L3.07811 18.2979L11.038 15.8511C11.038 15.8511 16.8753 11.1702 16.7691 11.0638C16.663 10.9574 2.33518 0.106384 2.33518 0.106384Z" fill="#8E5A30"/>
<path fill-rule="evenodd" clip-rule="evenodd" d="M36.8281 18.1915L39.7998 26.8085L32.3706 26.383H27.5946V22.6596L27.8069 15L28.8682 15.8511L36.8281 18.1915Z" fill="#F89D35"/>
<path fill-rule="evenodd" clip-rule="evenodd" d="M31.2031 19.1489L22.5003 19.3617L23.4555 23.8298L27.5946 22.7659L31.2031 19.1489Z" fill="#D87C30"/>
<path fill-rule="evenodd" clip-rule="evenodd" d="M31.2031 19.2553L27.5946 22.6596V26.0638L31.2031 19.2553Z" fill="#EA8D3A"/>
<path fill-rule="evenodd" clip-rule="evenodd" d="M27.5947 22.766L23.3494 23.8298L21.9697 28.4043L22.9249 28.9362L27.5947 26.1702V22.766Z" fill="#F89D35"/>
<path fill-rule="evenodd" clip-rule="evenodd" d="M27.5943 26.1702L28.4434 32.766L22.9245 28.9362L27.5943 26.1702Z" fill="#EB8F35"/>
<path fill-rule="evenodd" clip-rule="evenodd" d="M22.5002 19.3617L21.9695 28.4042L23.5615 23.7766L22.5002 19.3617Z" fill="#EA8E3A"/>
<path fill-rule="evenodd" clip-rule="evenodd" d="M32.4766 26.2766L27.5945 26.1702L28.4435 32.766L32.4766 26.2766Z" fill="#D87C30"/>
<path fill-rule="evenodd" clip-rule="evenodd" d="M37.4649 35.6383L28.4437 32.766L32.4767 26.2766L39.7998 26.8085L37.4649 35.6383Z" fill="#EB8F35"/>
<path fill-rule="evenodd" clip-rule="evenodd" d="M23.1371 11.0638L27.7008 14.8936L31.2031 19.1489L22.5003 19.4681L23.1371 11.0638Z" fill="#E8821E"/>
<path fill-rule="evenodd" clip-rule="evenodd" d="M24.8354 21.2766L23.668 23.7234L27.8071 22.6596L24.8354 21.2766Z" fill="#393939"/>
<path fill-rule="evenodd" clip-rule="evenodd" d="M37.5713 0.106384L23.1373 11.0638L25.5784 5.10638L37.5713 0.106384Z" fill="#E88F35"/>
<path fill-rule="evenodd" clip-rule="evenodd" d="M37.5711 0.106384L39.4814 5.95745L38.4201 12.3404L39.163 12.766L38.1017 13.7234L38.9508 14.4681L37.7833 15.5319L38.5263 16.1702L36.8281 18.2979L28.8682 15.8511C28.8682 15.8511 23.031 11.1702 23.1371 11.0638C23.2432 10.9574 37.5711 0.106384 37.5711 0.106384Z" fill="#8E5A30"/>
</svg>
