<svg width="15" height="11" viewBox="0 0 15 11" xmlns="http://www.w3.org/2000/svg">
  <path d="M5.14052 8.42969L5.74989 7.32812C5.29677 7 4.9426 6.58594 4.68739 6.08594C4.43218 5.58594 4.30458 5.05729 4.30458 4.5C4.30458 3.86979 4.46343 3.28385 4.78114 2.74219C3.58843 3.35156 2.59625 4.27083 1.80458 5.5C2.67437 6.84375 3.78635 7.82031 5.14052 8.42969ZM8.07021 2.76562C8.14312 2.69271 8.17958 2.60417 8.17958 2.5C8.17958 2.39583 8.14312 2.30729 8.07021 2.23438C7.99729 2.16146 7.90875 2.125 7.80458 2.125C7.15354 2.125 6.59364 2.35937 6.12489 2.82812C5.66135 3.29167 5.42958 3.84896 5.42958 4.5C5.42958 4.60417 5.46604 4.69271 5.53896 4.76562C5.61187 4.83854 5.70041 4.875 5.80458 4.875C5.90875 4.875 5.99729 4.83854 6.07021 4.76562C6.14312 4.69271 6.17958 4.60417 6.17958 4.5C6.17958 4.05208 6.33844 3.66927 6.65614 3.35156C6.97385 3.03385 7.35666 2.875 7.80458 2.875C7.90875 2.875 7.99729 2.83854 8.07021 2.76562ZM11.0155 1.00781C11.0155 1.04427 11.0129 1.06771 11.0077 1.07812C10.4608 2.05729 9.64052 3.53125 8.54677 5.5C7.45302 7.46875 6.6301 8.94531 6.07802 9.92969L5.69521 10.625C5.64312 10.7083 5.57021 10.75 5.47646 10.75C5.41396 10.75 5.065 10.5677 4.42958 10.2031C4.34625 10.151 4.30458 10.0781 4.30458 9.98437C4.30458 9.92187 4.41916 9.69531 4.64833 9.30469C3.90354 8.96615 3.21604 8.51562 2.58583 7.95312C1.96083 7.39062 1.41916 6.7526 0.960831 6.03906C0.856664 5.8776 0.804581 5.69792 0.804581 5.5C0.804581 5.30208 0.856664 5.1224 0.960831 4.96094C1.75771 3.73698 2.74729 2.77083 3.92958 2.0625C5.11187 1.35417 6.40354 0.999999 7.80458 0.999999C8.26812 0.999999 8.73687 1.04427 9.21083 1.13281L9.63271 0.374999C9.68479 0.291666 9.75771 0.25 9.85146 0.25C9.8775 0.25 9.92437 0.265625 9.99208 0.296875C10.0598 0.328124 10.1405 0.369791 10.2343 0.421874C10.328 0.46875 10.414 0.515625 10.4921 0.562499C10.5702 0.609375 10.6509 0.658854 10.7343 0.710937C10.8228 0.757812 10.8749 0.786458 10.8905 0.796875C10.9739 0.848958 11.0155 0.919271 11.0155 1.00781ZM11.3046 4.5C11.3046 5.22396 11.0989 5.88542 10.6874 6.48437C10.2759 7.07812 9.73166 7.50521 9.05458 7.76562L11.2421 3.84375C11.2837 4.07812 11.3046 4.29687 11.3046 4.5ZM14.6483 4.96094C14.7525 5.13802 14.8046 5.31771 14.8046 5.5C14.8046 5.68229 14.7525 5.86198 14.6483 6.03906C14.4452 6.3724 14.1614 6.75 13.7968 7.17187C13.0155 8.06771 12.1093 8.76302 11.078 9.25781C10.052 9.7526 8.96083 10 7.80458 10L8.38271 8.96875C9.48687 8.875 10.5077 8.51823 11.4452 7.89844C12.3879 7.27865 13.1744 6.47917 13.8046 5.5C13.2056 4.56771 12.4712 3.80208 11.6015 3.20312L12.0936 2.32812C12.5884 2.66146 13.0624 3.0599 13.5155 3.52344C13.9739 3.98698 14.3515 4.46615 14.6483 4.96094Z"
     />
</svg>
