<svg width="26" height="22" viewBox="0 0 26 22" xmlns="http://www.w3.org/2000/svg">
  <path d="M16.1 14.75C16.1 14.9688 16.0219 15.1562 15.8656 15.3125C15.7406 15.4375 15.5688 15.5 15.35 15.5H10.85C10.6313 15.5 10.4438 15.4375 10.2875 15.3125C10.1625 15.1562 10.1 14.9688 10.1 14.75V12.5H1.1V19.25C1.1 19.8438 1.31875 20.3594 1.75625 20.7969C2.225 21.2656 2.75625 21.5 3.35 21.5H22.85C23.4438 21.5 23.9594 21.2656 24.3969 20.7969C24.8656 20.3594 25.1 19.8438 25.1 19.25V12.5H16.1V14.75ZM22.85 5H19.1V2.75C19.1 2.15625 18.8656 1.64062 18.3969 1.20312C17.9594 0.734375 17.4438 0.5 16.85 0.5H9.35C8.75625 0.5 8.225 0.734375 7.75625 1.20312C7.31875 1.64062 7.1 2.15625 7.1 2.75V5H3.35C2.75625 5 2.225 5.23438 1.75625 5.70312C1.31875 6.14062 1.1 6.65625 1.1 7.25V11H25.1V7.25C25.1 6.65625 24.8656 6.14062 24.3969 5.70312C23.9594 5.23438 23.4438 5 22.85 5ZM16.1 5H10.1V3.5H16.1V5Z"
    />
  <path d="M10.2875 15.3125L10.0923 15.4687L10.1096 15.4904L10.1313 15.5077L10.2875 15.3125ZM10.1 12.5H10.35V12.25H10.1V12.5ZM1.1 12.5V12.25H0.85V12.5H1.1ZM24.3969 20.7969L24.2263 20.6141L24.22 20.62L24.2141 20.6263L24.3969 20.7969ZM25.1 12.5H25.35V12.25H25.1V12.5ZM16.1 12.5V12.25H15.85V12.5H16.1ZM19.1 5H18.85V5.25H19.1V5ZM18.3969 1.20312L18.2141 1.3737L18.22 1.38001L18.2263 1.38589L18.3969 1.20312ZM7.1 5V5.25H7.35V5H7.1ZM1.1 11H0.85V11.25H1.1V11ZM25.1 11V11.25H25.35V11H25.1ZM24.3969 5.70312L24.2141 5.8737L24.22 5.88001L24.2263 5.88589L24.3969 5.70312ZM16.1 5V5.25H16.35V5H16.1ZM10.1 5H9.85V5.25H10.1V5ZM10.1 3.5V3.25H9.85V3.5H10.1ZM16.1 3.5H16.35V3.25H16.1V3.5ZM15.85 14.75C15.85 14.9017 15.7987 15.0258 15.6888 15.1357L16.0424 15.4893C16.245 15.2867 16.35 15.0358 16.35 14.75H15.85ZM15.6888 15.1357C15.6213 15.2032 15.5191 15.25 15.35 15.25V15.75C15.6184 15.75 15.8599 15.6718 16.0424 15.4893L15.6888 15.1357ZM15.35 15.25H10.85V15.75H15.35V15.25ZM10.85 15.25C10.6824 15.25 10.5514 15.2035 10.4437 15.1173L10.1313 15.5077C10.3361 15.6715 10.5801 15.75 10.85 15.75V15.25ZM10.4827 15.1563C10.3966 15.0486 10.35 14.9176 10.35 14.75H9.85C9.85 15.0199 9.92845 15.2639 10.0923 15.4687L10.4827 15.1563ZM10.35 14.75V12.5H9.85V14.75H10.35ZM10.1 12.25H1.1V12.75H10.1V12.25ZM0.85 12.5V19.25H1.35V12.5H0.85ZM0.85 19.25C0.85 19.9131 1.09729 20.4915 1.57947 20.9737L1.93303 20.6201C1.54021 20.2273 1.35 19.7744 1.35 19.25H0.85ZM1.57947 20.9737C2.08913 21.4833 2.68195 21.75 3.35 21.75V21.25C2.83055 21.25 2.36087 21.0479 1.93303 20.6201L1.57947 20.9737ZM3.35 21.75H22.85V21.25H3.35V21.75ZM22.85 21.75C23.519 21.75 24.0991 21.4823 24.5796 20.9675L24.2141 20.6263C23.8197 21.0489 23.3685 21.25 22.85 21.25V21.75ZM24.5675 20.9796C25.0823 20.4991 25.35 19.919 25.35 19.25H24.85C24.85 19.7685 24.6489 20.2197 24.2263 20.6141L24.5675 20.9796ZM25.35 19.25V12.5H24.85V19.25H25.35ZM25.1 12.25H16.1V12.75H25.1V12.25ZM15.85 12.5V14.75H16.35V12.5H15.85ZM22.85 4.75H19.1V5.25H22.85V4.75ZM19.35 5V2.75H18.85V5H19.35ZM19.35 2.75C19.35 2.081 19.0823 1.50092 18.5675 1.02036L18.2263 1.38589C18.6489 1.78033 18.85 2.2315 18.85 2.75H19.35ZM18.5796 1.03255C18.0991 0.517657 17.519 0.25 16.85 0.25V0.75C17.3685 0.75 17.8197 0.951093 18.2141 1.3737L18.5796 1.03255ZM16.85 0.25H9.35V0.75H16.85V0.25ZM9.35 0.25C8.68195 0.25 8.08913 0.516689 7.57947 1.02635L7.93303 1.3799C8.36087 0.952061 8.83055 0.75 9.35 0.75V0.25ZM7.57947 1.02635C7.09729 1.50853 6.85 2.0869 6.85 2.75H7.35C7.35 2.2256 7.54021 1.77272 7.93303 1.3799L7.57947 1.02635ZM6.85 2.75V5H7.35V2.75H6.85ZM7.1 4.75H3.35V5.25H7.1V4.75ZM3.35 4.75C2.68195 4.75 2.08913 5.01669 1.57947 5.52635L1.93303 5.8799C2.36087 5.45206 2.83055 5.25 3.35 5.25V4.75ZM1.57947 5.52635C1.09729 6.00853 0.85 6.5869 0.85 7.25H1.35C1.35 6.7256 1.54021 6.27272 1.93303 5.8799L1.57947 5.52635ZM0.85 7.25V11H1.35V7.25H0.85ZM1.1 11.25H25.1V10.75H1.1V11.25ZM25.35 11V7.25H24.85V11H25.35ZM25.35 7.25C25.35 6.581 25.0823 6.00092 24.5675 5.52036L24.2263 5.88589C24.6489 6.28033 24.85 6.7315 24.85 7.25H25.35ZM24.5796 5.53255C24.0991 5.01766 23.519 4.75 22.85 4.75V5.25C23.3685 5.25 23.8197 5.45109 24.2141 5.8737L24.5796 5.53255ZM16.1 4.75H10.1V5.25H16.1V4.75ZM10.35 5V3.5H9.85V5H10.35ZM10.1 3.75H16.1V3.25H10.1V3.75ZM15.85 3.5V5H16.35V3.5H15.85Z"
     />
</svg>
