<svg width="18" height="13" viewBox="0 0 18 13"  xmlns="http://www.w3.org/2000/svg">
  <path d="M10.3125 0.625H7.6875C7.45052 0.625 7.24089 0.716146 7.05859 0.898438C6.89453 1.0625 6.8125 1.26302 6.8125 1.5V4.125C6.8125 4.36198 6.89453 4.57161 7.05859 4.75391C7.24089 4.91797 7.45052 5 7.6875 5H10.3125C10.5495 5 10.75 4.91797 10.9141 4.75391C11.0964 4.57161 11.1875 4.36198 11.1875 4.125V1.5C11.1875 1.26302 11.0964 1.0625 10.9141 0.898438C10.75 0.716146 10.5495 0.625 10.3125 0.625ZM5.9375 2.15625H3.61328C3.48568 1.82812 3.27604 1.5638 2.98438 1.36328C2.69271 1.16276 2.36458 1.0625 2 1.0625C1.50781 1.0625 1.08854 1.23568 0.742188 1.58203C0.414062 1.91016 0.25 2.32031 0.25 2.8125C0.25 3.30469 0.414062 3.72396 0.742188 4.07031C1.08854 4.39844 1.50781 4.5625 2 4.5625C2.36458 4.5625 2.69271 4.46224 2.98438 4.26172C3.27604 4.0612 3.48568 3.79688 3.61328 3.46875H5.80078C5.03516 3.92448 4.38802 4.51693 3.85938 5.24609C3.34896 5.95703 2.99349 6.75 2.79297 7.625H4.16016C4.30599 7.0599 4.54297 6.54036 4.87109 6.06641C5.21745 5.59245 5.6276 5.18229 6.10156 4.83594C5.99219 4.61719 5.9375 4.38021 5.9375 4.125V2.15625ZM4.625 8.5H2C1.76302 8.5 1.55339 8.59115 1.37109 8.77344C1.20703 8.9375 1.125 9.13802 1.125 9.375V12C1.125 12.237 1.20703 12.4375 1.37109 12.6016C1.55339 12.7839 1.76302 12.875 2 12.875H4.625C4.86198 12.875 5.0625 12.7839 5.22656 12.6016C5.40885 12.4375 5.5 12.237 5.5 12V9.375C5.5 9.13802 5.40885 8.9375 5.22656 8.77344C5.0625 8.59115 4.86198 8.5 4.625 8.5ZM16 1.0625C15.6354 1.0625 15.3073 1.16276 15.0156 1.36328C14.724 1.5638 14.5143 1.82812 14.3867 2.15625H12.0625V4.125C12.0625 4.38021 12.0078 4.61719 11.8984 4.83594C12.3724 5.18229 12.7734 5.59245 13.1016 6.06641C13.4479 6.54036 13.694 7.0599 13.8398 7.625H15.207C15.0065 6.75 14.6419 5.95703 14.1133 5.24609C13.6029 4.51693 12.9648 3.92448 12.1992 3.46875H14.3867C14.5143 3.79688 14.724 4.0612 15.0156 4.26172C15.3073 4.46224 15.6354 4.5625 16 4.5625C16.4922 4.5625 16.9023 4.39844 17.2305 4.07031C17.5768 3.72396 17.75 3.30469 17.75 2.8125C17.75 2.32031 17.5768 1.91016 17.2305 1.58203C16.9023 1.23568 16.4922 1.0625 16 1.0625ZM16 8.5H13.375C13.138 8.5 12.9284 8.59115 12.7461 8.77344C12.582 8.9375 12.5 9.13802 12.5 9.375V12C12.5 12.237 12.582 12.4375 12.7461 12.6016C12.9284 12.7839 13.138 12.875 13.375 12.875H16C16.237 12.875 16.4375 12.7839 16.6016 12.6016C16.7839 12.4375 16.875 12.237 16.875 12V9.375C16.875 9.13802 16.7839 8.9375 16.6016 8.77344C16.4375 8.59115 16.237 8.5 16 8.5Z"
     />
</svg>
