<svg width="50" height="50" viewBox="0 0 50 50" version="1.1" xmlns="http://www.w3.org/2000/svg" xmlns:xlink="http://www.w3.org/1999/xlink">
    <g id="Desktop"  fill="#FF7092">
      <g id="Group-16" >
        <g transform="translate(2.833333, 0.000000)" id="Path">
          <polygon opacity="0.3" points="43.4302326 10.255814 39.0639535 13.5348837 28.127907 2.59883721"></polygon>
          <polygon opacity="0.6" points="22.2383721 0 36.1453488 13.9069767 8.33139535 13.9069767"></polygon>
          <polygon opacity="0.3" points="16.3488372 2.59883721 5.41860465 13.5348837 1.04593023 10.255814"></polygon>
          <polygon opacity="0.3" points="0 12.377907 4.18604651 15.5174419 4.18604651 15.5232558 0 30.1686047"></polygon>
          <polygon opacity="0.6" points="1.72093023 32.6046512 5.91860465 17.9011628 5.925 17.9069767 19.9244186 40.3081395 0.319767442 37.505814"></polygon>
          <polygon opacity="0.3" points="21.0755814 49.8372093 4.70348837 40.4825581 21.0755814 42.8197674"></polygon>
          <polygon points="22.2383721 39.6162791 14.7325581 27.6104651 7.62209302 16.2325581 36.8546512 16.2325581"></polygon>
          <polygon opacity="0.3" points="23.4011628 49.8372093 23.4011628 42.8197674 39.7732558 40.4819767"></polygon>
          <polygon opacity="0.6" points="24.5523256 40.3081395 38.5523256 17.9069767 43.2209302 34.2383721 44.1569767 37.505814"></polygon>
          <polygon opacity="0.3" points="44.4767442 30.1686047 40.2906977 15.5232558 40.2906977 15.5174419 44.4767442 12.377907"></polygon>
        </g>
      </g>
    </g>
</svg>
