<svg width="15" height="4" viewBox="0 0 15 4" fill="none" xmlns="http://www.w3.org/2000/svg">
  <path
    d="M4.28195 0.964285C4.28195 0.431919 3.85003 0 3.31766 0H1.38909C0.856724 0 0.424805 0.431919 0.424805 0.964285V2.89286C0.424805 3.42522 0.856724 3.85714 1.38909 3.85714H3.31766C3.85003 3.85714 4.28195 3.42522 4.28195 2.89286V0.964285ZM9.4248 0.964285C9.4248 0.431919 8.99289 0 8.46052 0H6.53195C5.99958 0 5.56766 0.431919 5.56766 0.964285V2.89286C5.56766 3.42522 5.99958 3.85714 6.53195 3.85714H8.46052C8.99289 3.85714 9.4248 3.42522 9.4248 2.89286V0.964285ZM14.5677 0.964285C14.5677 0.431919 14.1357 0 13.6034 0H11.6748C11.1424 0 10.7105 0.431919 10.7105 0.964285V2.89286C10.7105 3.42522 11.1424 3.85714 11.6748 3.85714H13.6034C14.1357 3.85714 14.5677 3.42522 14.5677 2.89286V0.964285Z"
  />
</svg>
