<svg width="64" height="48" viewBox="0 0 64 48" fill="none" xmlns="http://www.w3.org/2000/svg">
  <path
    d="M58 48H6C4.33333 48 2.91667 47.4167 1.75 46.25C0.583333 45.0833 0 43.6667 0 42V6C0 4.33333 0.583333 2.91667 1.75 1.75C2.91667 0.583333 4.33333 0 6 0H58C59.6667 0 61.0833 0.583333 62.25 1.75C63.4167 2.91667 64 4.33333 64 6V42C64 43.6667 63.4167 45.0833 62.25 46.25C61.0833 47.4167 59.6667 48 58 48ZM14 7C12.0833 7 10.4167 7.70833 9 9.125C7.66667 10.4583 7 12.0833 7 14C7 15.9167 7.66667 17.5833 9 19C10.4167 20.3333 12.0833 21 14 21C15.9167 21 17.5417 20.3333 18.875 19C20.2917 17.5833 21 15.9167 21 14C21 12.0833 20.2917 10.4583 18.875 9.125C17.5417 7.70833 15.9167 7 14 7ZM8 40H56V26L45 15C44.75 14.75 44.4167 14.625 44 14.625C43.5833 14.625 43.25 14.75 43 15L26 32L19 25C18.75 24.75 18.4167 24.625 18 24.625C17.5833 24.625 17.25 24.75 17 25L8 34V40Z"
  />
</svg>
