<svg width="24" height="24" viewBox="0 0 24 24"  xmlns="http://www.w3.org/2000/svg">
<path d="M12.1 0.375C10.0062 0.375 8.06875 0.90625 6.2875 1.96875C4.50625 3 3.08437 4.40625 2.02187 6.1875C0.990623 7.96875 0.474998 9.90625 0.474998 12C0.474998 14.0938 0.990623 16.0312 2.02187 17.8125C3.08437 19.5938 4.50625 21 6.2875 22.0312C8.06875 23.0938 10.0062 23.625 12.1 23.625C14.1937 23.625 16.1312 23.0938 17.9125 22.0312C19.6937 21 21.1 19.5938 22.1312 17.8125C23.1937 16.0312 23.725 14.0938 23.725 12C23.725 9.90625 23.1937 7.96875 22.1312 6.1875C21.1 4.40625 19.6937 3 17.9125 1.96875C16.1312 0.90625 14.1937 0.375 12.1 0.375ZM12.1 4.875C13.225 4.875 14.1937 5.28125 15.0062 6.09375C15.8187 6.90625 16.225 7.875 16.225 9C16.225 10.125 15.8187 11.0938 15.0062 11.9062C14.1937 12.7188 13.225 13.125 12.1 13.125C10.975 13.125 10.0062 12.7188 9.19375 11.9062C8.38125 11.0938 7.975 10.125 7.975 9C7.975 7.875 8.38125 6.90625 9.19375 6.09375C10.0062 5.28125 10.975 4.875 12.1 4.875ZM12.1 21C10.7562 21 9.475 20.7188 8.25625 20.1562C7.06875 19.5938 6.05312 18.8125 5.20937 17.8125C5.67812 16.9688 6.31875 16.2969 7.13125 15.7969C7.94375 15.2656 8.85 15 9.85 15C9.94375 15 10.0531 15.0156 10.1781 15.0469C10.8344 15.2656 11.475 15.375 12.1 15.375C12.725 15.375 13.3656 15.2656 14.0219 15.0469C14.1469 15.0156 14.2562 15 14.35 15C15.35 15 16.2562 15.2656 17.0687 15.7969C17.8812 16.2969 18.5219 16.9688 18.9906 17.8125C18.1469 18.8125 17.1156 19.5938 15.8969 20.1562C14.7094 20.7188 13.4437 21 12.1 21Z" />
<path d="M6.2875 1.96875L6.41277 2.18512L6.41557 2.18345L6.2875 1.96875ZM2.02187 6.1875L1.80715 6.05942L1.80552 6.06224L2.02187 6.1875ZM2.02187 17.8125L1.8055 17.9378L1.80717 17.9406L2.02187 17.8125ZM6.2875 22.0312L6.41558 21.8165L6.41276 21.8149L6.2875 22.0312ZM17.9125 22.0312L17.7872 21.8149L17.7844 21.8165L17.9125 22.0312ZM22.1312 17.8125L21.9165 17.6844L21.9149 17.6872L22.1312 17.8125ZM22.1312 6.1875L21.9149 6.31277L21.9165 6.31557L22.1312 6.1875ZM17.9125 1.96875L17.7844 2.18347L17.7872 2.18511L17.9125 1.96875ZM8.25625 20.1562L8.14922 20.3822L8.15149 20.3832L8.25625 20.1562ZM5.20937 17.8125L4.99083 17.6911L4.90706 17.8419L5.0183 17.9737L5.20937 17.8125ZM7.13125 15.7969L7.26232 16.0099L7.26806 16.0061L7.13125 15.7969ZM10.1781 15.0469L10.2572 14.8097L10.2481 14.8067L10.2388 14.8043L10.1781 15.0469ZM14.0219 15.0469L13.9612 14.8043L13.9519 14.8067L13.9428 14.8097L14.0219 15.0469ZM17.0687 15.7969L16.9319 16.0062L16.9377 16.0098L17.0687 15.7969ZM18.9906 17.8125L19.1817 17.9737L19.2929 17.8419L19.2092 17.6911L18.9906 17.8125ZM15.8969 20.1562L15.7921 19.9292L15.7899 19.9303L15.8969 20.1562ZM12.1 0.125C9.96161 0.125 7.97979 0.668216 6.15943 1.75405L6.41557 2.18345C8.15771 1.14428 10.0509 0.625 12.1 0.625V0.125ZM6.16224 1.75239C4.34385 2.80515 2.8913 4.24191 1.80717 6.05943L2.23658 6.31557C3.27744 4.57059 4.66865 3.19485 6.41276 2.18511L6.16224 1.75239ZM1.80552 6.06224C0.751831 7.88224 0.224998 9.86306 0.224998 12H0.724998C0.724998 9.94944 1.22942 8.05526 2.23823 6.31276L1.80552 6.06224ZM0.224998 12C0.224998 14.1369 0.751831 16.1178 1.80552 17.9378L2.23823 17.6872C1.22942 15.9447 0.724998 14.0506 0.724998 12H0.224998ZM1.80717 17.9406C2.8913 19.7581 4.34385 21.1949 6.16224 22.2476L6.41276 21.8149C4.66865 20.8051 3.27744 19.4294 2.23658 17.6844L1.80717 17.9406ZM6.15943 22.246C7.97979 23.3318 9.96161 23.875 12.1 23.875V23.375C10.0509 23.375 8.15771 22.8557 6.41557 21.8165L6.15943 22.246ZM12.1 23.875C14.2384 23.875 16.2202 23.3318 18.0406 22.246L17.7844 21.8165C16.0423 22.8557 14.1491 23.375 12.1 23.375V23.875ZM18.0378 22.2476C19.8568 21.1945 21.2945 19.7568 22.3476 17.9378L21.9149 17.6872C20.9055 19.4307 19.5307 20.8055 17.7872 21.8149L18.0378 22.2476ZM22.346 17.9406C23.4318 16.1202 23.975 14.1384 23.975 12H23.475C23.475 14.0491 22.9557 15.9423 21.9165 17.6844L22.346 17.9406ZM23.975 12C23.975 9.86161 23.4318 7.87979 22.346 6.05943L21.9165 6.31557C22.9557 8.05771 23.475 9.95089 23.475 12H23.975ZM22.3476 6.06224C21.2945 4.24319 19.8568 2.80553 18.0378 1.75239L17.7872 2.18511C19.5307 3.19447 20.9055 4.56931 21.9149 6.31276L22.3476 6.06224ZM18.0406 1.75405C16.2202 0.668216 14.2384 0.125 12.1 0.125V0.625C14.1491 0.625 16.0423 1.14428 17.7844 2.18345L18.0406 1.75405ZM12.1 5.125C13.1571 5.125 14.0627 5.50379 14.8295 6.27053L15.183 5.91697C14.3248 5.05871 13.2929 4.625 12.1 4.625V5.125ZM14.8295 6.27053C15.5962 7.03727 15.975 7.94288 15.975 9H16.475C16.475 7.80712 16.0413 6.77523 15.183 5.91697L14.8295 6.27053ZM15.975 9C15.975 10.0571 15.5962 10.9627 14.8295 11.7295L15.183 12.083C16.0413 11.2248 16.475 10.1929 16.475 9H15.975ZM14.8295 11.7295C14.0627 12.4962 13.1571 12.875 12.1 12.875V13.375C13.2929 13.375 14.3248 12.9413 15.183 12.083L14.8295 11.7295ZM12.1 12.875C11.0429 12.875 10.1373 12.4962 9.37053 11.7295L9.01697 12.083C9.87523 12.9413 10.9071 13.375 12.1 13.375V12.875ZM9.37053 11.7295C8.60379 10.9627 8.225 10.0571 8.225 9H7.725C7.725 10.1929 8.15871 11.2248 9.01697 12.083L9.37053 11.7295ZM8.225 9C8.225 7.94288 8.60379 7.03727 9.37053 6.27053L9.01697 5.91697C8.15871 6.77523 7.725 7.80712 7.725 9H8.225ZM9.37053 6.27053C10.1373 5.50379 11.0429 5.125 12.1 5.125V4.625C10.9071 4.625 9.87523 5.05871 9.01697 5.91697L9.37053 6.27053ZM12.1 20.75C10.7924 20.75 9.54688 20.4766 8.36101 19.9293L8.15149 20.3832C9.40311 20.9609 10.7201 21.25 12.1 21.25V20.75ZM8.36327 19.9303C7.20795 19.3831 6.22103 18.6238 5.40045 17.6513L5.0183 17.9737C5.88522 19.0012 6.92955 19.8044 8.14923 20.3822L8.36327 19.9303ZM5.42791 17.9339C5.87608 17.1272 6.48676 16.487 7.26227 16.0098L7.00023 15.584C6.15074 16.1067 5.48016 16.8103 4.99083 17.6911L5.42791 17.9339ZM7.26806 16.0061C8.03861 15.5023 8.89705 15.25 9.85 15.25V14.75C8.80295 14.75 7.84889 15.029 6.99443 15.5876L7.26806 16.0061ZM9.85 15.25C9.9173 15.25 10.0055 15.2614 10.1175 15.2894L10.2388 14.8043C10.1007 14.7698 9.97019 14.75 9.85 14.75V15.25ZM10.0991 15.284C10.7781 15.5104 11.4454 15.625 12.1 15.625V15.125C11.5046 15.125 10.8906 15.0209 10.2572 14.8097L10.0991 15.284ZM12.1 15.625C12.7546 15.625 13.4219 15.5104 14.1009 15.284L13.9428 14.8097C13.3094 15.0209 12.6954 15.125 12.1 15.125V15.625ZM14.0825 15.2894C14.1945 15.2614 14.2827 15.25 14.35 15.25V14.75C14.2298 14.75 14.0992 14.7698 13.9612 14.8043L14.0825 15.2894ZM14.35 15.25C15.303 15.25 16.1614 15.5023 16.9319 16.0061L17.2056 15.5876C16.3511 15.029 15.397 14.75 14.35 14.75V15.25ZM16.9377 16.0098C17.7132 16.487 18.3239 17.1272 18.7721 17.9339L19.2092 17.6911C18.7198 16.8103 18.0493 16.1067 17.1998 15.584L16.9377 16.0098ZM18.7996 17.6513C17.98 18.6226 16.9785 19.3817 15.7921 19.9293L16.0016 20.3832C17.2527 19.8058 18.3137 19.0024 19.1817 17.9737L18.7996 17.6513ZM15.7899 19.9303C14.6366 20.4766 13.4076 20.75 12.1 20.75V21.25C13.4799 21.25 14.7822 20.9609 16.0039 20.3822L15.7899 19.9303Z" />
</svg>
