<svg width="26" height="22" viewBox="0 0 26 22" xmlns="http://www.w3.org/2000/svg">
<path d="M24.35 17H8.6V16.25C8.6 16.0312 8.52187 15.8594 8.36562 15.7344C8.24062 15.5781 8.06875 15.5 7.85 15.5H6.35C6.13125 15.5 5.94375 15.5781 5.7875 15.7344C5.6625 15.8594 5.6 16.0312 5.6 16.25V17H1.85C1.63125 17 1.44375 17.0781 1.2875 17.2344C1.1625 17.3594 1.1 17.5312 1.1 17.75V19.25C1.1 19.4688 1.1625 19.6562 1.2875 19.8125C1.44375 19.9375 1.63125 20 1.85 20H5.6V20.75C5.6 20.9688 5.6625 21.1406 5.7875 21.2656C5.94375 21.4219 6.13125 21.5 6.35 21.5H7.85C8.06875 21.5 8.24062 21.4219 8.36562 21.2656C8.52187 21.1406 8.6 20.9688 8.6 20.75V20H24.35C24.5687 20 24.7406 19.9375 24.8656 19.8125C25.0219 19.6562 25.1 19.4688 25.1 19.25V17.75C25.1 17.5312 25.0219 17.3594 24.8656 17.2344C24.7406 17.0781 24.5687 17 24.35 17ZM24.35 9.5H20.6V8.75C20.6 8.53125 20.5219 8.35938 20.3656 8.23438C20.2406 8.07812 20.0687 8 19.85 8H18.35C18.1312 8 17.9437 8.07812 17.7875 8.23438C17.6625 8.35938 17.6 8.53125 17.6 8.75V9.5H1.85C1.63125 9.5 1.44375 9.57812 1.2875 9.73438C1.1625 9.85938 1.1 10.0312 1.1 10.25V11.75C1.1 11.9688 1.1625 12.1562 1.2875 12.3125C1.44375 12.4375 1.63125 12.5 1.85 12.5H17.6V13.25C17.6 13.4688 17.6625 13.6562 17.7875 13.8125C17.9437 13.9375 18.1312 14 18.35 14H19.85C20.0687 14 20.2406 13.9375 20.3656 13.8125C20.5219 13.6562 20.6 13.4688 20.6 13.25V12.5H24.35C24.5687 12.5 24.7406 12.4375 24.8656 12.3125C25.0219 12.1562 25.1 11.9688 25.1 11.75V10.25C25.1 10.0312 25.0219 9.85938 24.8656 9.73438C24.7406 9.57812 24.5687 9.5 24.35 9.5ZM24.35 2H14.6V1.25C14.6 1.03125 14.5219 0.859375 14.3656 0.734375C14.2406 0.578125 14.0687 0.5 13.85 0.5H12.35C12.1312 0.5 11.9437 0.578125 11.7875 0.734375C11.6625 0.859375 11.6 1.03125 11.6 1.25V2H1.85C1.63125 2 1.44375 2.07813 1.2875 2.23438C1.1625 2.35938 1.1 2.53125 1.1 2.75V4.25C1.1 4.46875 1.1625 4.65625 1.2875 4.8125C1.44375 4.9375 1.63125 5 1.85 5H11.6V5.75C11.6 5.96875 11.6625 6.15625 11.7875 6.3125C11.9437 6.4375 12.1312 6.5 12.35 6.5H13.85C14.0687 6.5 14.2406 6.4375 14.3656 6.3125C14.5219 6.15625 14.6 5.96875 14.6 5.75V5H24.35C24.5687 5 24.7406 4.9375 24.8656 4.8125C25.0219 4.65625 25.1 4.46875 25.1 4.25V2.75C25.1 2.53125 25.0219 2.35938 24.8656 2.23438C24.7406 2.07813 24.5687 2 24.35 2Z" />
<path d="M8.6 17H8.35V17.25H8.6V17ZM8.36562 15.7344L8.17041 15.8905L8.18776 15.9122L8.20945 15.9296L8.36562 15.7344ZM5.6 17V17.25H5.85V17H5.6ZM1.2875 19.8125L1.09228 19.9687L1.10963 19.9904L1.13132 20.0077L1.2875 19.8125ZM5.6 20H5.85V19.75H5.6V20ZM8.36562 21.2656L8.20945 21.0704L8.18776 21.0878L8.17041 21.1095L8.36562 21.2656ZM8.6 20V19.75H8.35V20H8.6ZM24.8656 17.2344L24.6704 17.3905L24.6878 17.4122L24.7094 17.4296L24.8656 17.2344ZM20.6 9.5H20.35V9.75H20.6V9.5ZM20.3656 8.23438L20.1704 8.39055L20.1878 8.41224L20.2094 8.42959L20.3656 8.23438ZM17.6 9.5V9.75H17.85V9.5H17.6ZM1.2875 12.3125L1.09228 12.4687L1.10963 12.4904L1.13132 12.5077L1.2875 12.3125ZM17.6 12.5H17.85V12.25H17.6V12.5ZM17.7875 13.8125L17.5923 13.9687L17.6096 13.9904L17.6313 14.0077L17.7875 13.8125ZM20.6 12.5V12.25H20.35V12.5H20.6ZM24.8656 9.73438L24.6704 9.89055L24.6878 9.91224L24.7094 9.92959L24.8656 9.73438ZM14.6 2H14.35V2.25H14.6V2ZM14.3656 0.734375L14.1704 0.890549L14.1878 0.91224L14.2094 0.929592L14.3656 0.734375ZM11.6 2V2.25H11.85V2H11.6ZM1.2875 4.8125L1.09228 4.96867L1.10963 4.99036L1.13132 5.00772L1.2875 4.8125ZM11.6 5H11.85V4.75H11.6V5ZM11.7875 6.3125L11.5923 6.46867L11.6096 6.49036L11.6313 6.50772L11.7875 6.3125ZM14.6 5V4.75H14.35V5H14.6ZM24.8656 2.23438L24.6704 2.39055L24.6878 2.41224L24.7094 2.42959L24.8656 2.23438ZM24.35 16.75H8.6V17.25H24.35V16.75ZM8.85 17V16.25H8.35V17H8.85ZM8.85 16.25C8.85 15.9634 8.74339 15.7164 8.5218 15.5392L8.20945 15.9296C8.30035 16.0023 8.35 16.0991 8.35 16.25H8.85ZM8.56084 15.5782C8.38356 15.3566 8.1366 15.25 7.85 15.25V15.75C8.00089 15.75 8.09768 15.7996 8.17041 15.8905L8.56084 15.5782ZM7.85 15.25H6.35V15.75H7.85V15.25ZM6.35 15.25C6.06419 15.25 5.81332 15.355 5.61072 15.5576L5.96428 15.9112C6.07418 15.8013 6.19831 15.75 6.35 15.75V15.25ZM5.61072 15.5576C5.42823 15.7401 5.35 15.9816 5.35 16.25H5.85C5.85 16.0809 5.89677 15.9787 5.96428 15.9112L5.61072 15.5576ZM5.35 16.25V17H5.85V16.25H5.35ZM5.6 16.75H1.85V17.25H5.6V16.75ZM1.85 16.75C1.56419 16.75 1.31332 16.855 1.11072 17.0576L1.46428 17.4112C1.57418 17.3013 1.69831 17.25 1.85 17.25V16.75ZM1.11072 17.0576C0.92823 17.2401 0.849998 17.4816 0.849998 17.75H1.35C1.35 17.5809 1.39677 17.4787 1.46428 17.4112L1.11072 17.0576ZM0.849998 17.75V19.25H1.35V17.75H0.849998ZM0.849998 19.25C0.849998 19.5199 0.928448 19.7639 1.09228 19.9687L1.48272 19.6563C1.39655 19.5486 1.35 19.4176 1.35 19.25H0.849998ZM1.13132 20.0077C1.33612 20.1716 1.58012 20.25 1.85 20.25V19.75C1.68238 19.75 1.55138 19.7034 1.44367 19.6173L1.13132 20.0077ZM1.85 20.25H5.6V19.75H1.85V20.25ZM5.35 20V20.75H5.85V20H5.35ZM5.35 20.75C5.35 21.0184 5.42823 21.2599 5.61072 21.4424L5.96428 21.0888C5.89677 21.0213 5.85 20.9191 5.85 20.75H5.35ZM5.61072 21.4424C5.81332 21.645 6.06419 21.75 6.35 21.75V21.25C6.19831 21.25 6.07418 21.1987 5.96428 21.0888L5.61072 21.4424ZM6.35 21.75H7.85V21.25H6.35V21.75ZM7.85 21.75C8.1366 21.75 8.38356 21.6434 8.56084 21.4218L8.17041 21.1095C8.09768 21.2004 8.00089 21.25 7.85 21.25V21.75ZM8.5218 21.4608C8.74339 21.2836 8.85 21.0366 8.85 20.75H8.35C8.35 20.9009 8.30035 20.9977 8.20945 21.0704L8.5218 21.4608ZM8.85 20.75V20H8.35V20.75H8.85ZM8.6 20.25H24.35V19.75H8.6V20.25ZM24.35 20.25C24.6184 20.25 24.8599 20.1718 25.0424 19.9893L24.6889 19.6357C24.6213 19.7032 24.5191 19.75 24.35 19.75V20.25ZM25.0424 19.9893C25.245 19.7867 25.35 19.5358 25.35 19.25H24.85C24.85 19.4017 24.7987 19.5258 24.6889 19.6357L25.0424 19.9893ZM25.35 19.25V17.75H24.85V19.25H25.35ZM25.35 17.75C25.35 17.4634 25.2434 17.2164 25.0218 17.0392L24.7094 17.4296C24.8004 17.5023 24.85 17.5991 24.85 17.75H25.35ZM25.0608 17.0782C24.8836 16.8566 24.6366 16.75 24.35 16.75V17.25C24.5009 17.25 24.5977 17.2996 24.6704 17.3905L25.0608 17.0782ZM24.35 9.25H20.6V9.75H24.35V9.25ZM20.85 9.5V8.75H20.35V9.5H20.85ZM20.85 8.75C20.85 8.46339 20.7434 8.21643 20.5218 8.03916L20.2094 8.42959C20.3004 8.50232 20.35 8.59911 20.35 8.75H20.85ZM20.5608 8.0782C20.3836 7.85661 20.1366 7.75 19.85 7.75V8.25C20.0009 8.25 20.0977 8.29964 20.1704 8.39055L20.5608 8.0782ZM19.85 7.75H18.35V8.25H19.85V7.75ZM18.35 7.75C18.0642 7.75 17.8133 7.855 17.6107 8.0576L17.9643 8.41115C18.0742 8.30125 18.1983 8.25 18.35 8.25V7.75ZM17.6107 8.0576C17.4282 8.24009 17.35 8.48163 17.35 8.75H17.85C17.85 8.58087 17.8968 8.47866 17.9643 8.41115L17.6107 8.0576ZM17.35 8.75V9.5H17.85V8.75H17.35ZM17.6 9.25H1.85V9.75H17.6V9.25ZM1.85 9.25C1.56419 9.25 1.31332 9.355 1.11072 9.5576L1.46428 9.91115C1.57418 9.80125 1.69831 9.75 1.85 9.75V9.25ZM1.11072 9.5576C0.92823 9.74009 0.849998 9.98163 0.849998 10.25H1.35C1.35 10.0809 1.39677 9.97866 1.46428 9.91115L1.11072 9.5576ZM0.849998 10.25V11.75H1.35V10.25H0.849998ZM0.849998 11.75C0.849998 12.0199 0.928448 12.2639 1.09228 12.4687L1.48272 12.1563C1.39655 12.0486 1.35 11.9176 1.35 11.75H0.849998ZM1.13132 12.5077C1.33612 12.6715 1.58012 12.75 1.85 12.75V12.25C1.68238 12.25 1.55138 12.2035 1.44367 12.1173L1.13132 12.5077ZM1.85 12.75H17.6V12.25H1.85V12.75ZM17.35 12.5V13.25H17.85V12.5H17.35ZM17.35 13.25C17.35 13.5199 17.4285 13.7639 17.5923 13.9687L17.9827 13.6563C17.8965 13.5486 17.85 13.4176 17.85 13.25H17.35ZM17.6313 14.0077C17.8361 14.1715 18.0801 14.25 18.35 14.25V13.75C18.1824 13.75 18.0514 13.7035 17.9437 13.6173L17.6313 14.0077ZM18.35 14.25H19.85V13.75H18.35V14.25ZM19.85 14.25C20.1184 14.25 20.3599 14.1718 20.5424 13.9893L20.1889 13.6357C20.1213 13.7032 20.0191 13.75 19.85 13.75V14.25ZM20.5424 13.9893C20.745 13.7867 20.85 13.5358 20.85 13.25H20.35C20.35 13.4017 20.2987 13.5258 20.1889 13.6357L20.5424 13.9893ZM20.85 13.25V12.5H20.35V13.25H20.85ZM20.6 12.75H24.35V12.25H20.6V12.75ZM24.35 12.75C24.6184 12.75 24.8599 12.6718 25.0424 12.4893L24.6889 12.1357C24.6213 12.2032 24.5191 12.25 24.35 12.25V12.75ZM25.0424 12.4893C25.245 12.2867 25.35 12.0358 25.35 11.75H24.85C24.85 11.9017 24.7987 12.0258 24.6889 12.1357L25.0424 12.4893ZM25.35 11.75V10.25H24.85V11.75H25.35ZM25.35 10.25C25.35 9.96339 25.2434 9.71643 25.0218 9.53916L24.7094 9.92959C24.8004 10.0023 24.85 10.0991 24.85 10.25H25.35ZM25.0608 9.5782C24.8836 9.35661 24.6366 9.25 24.35 9.25V9.75C24.5009 9.75 24.5977 9.79964 24.6704 9.89055L25.0608 9.5782ZM24.35 1.75H14.6V2.25H24.35V1.75ZM14.85 2V1.25H14.35V2H14.85ZM14.85 1.25C14.85 0.963394 14.7434 0.716435 14.5218 0.539158L14.2094 0.929592C14.3004 1.00232 14.35 1.09911 14.35 1.25H14.85ZM14.5608 0.578201C14.3836 0.356605 14.1366 0.25 13.85 0.25V0.75C14.0009 0.75 14.0977 0.799645 14.1704 0.890549L14.5608 0.578201ZM13.85 0.25H12.35V0.75H13.85V0.25ZM12.35 0.25C12.0642 0.25 11.8133 0.354999 11.6107 0.557598L11.9643 0.911152C12.0742 0.801251 12.1983 0.75 12.35 0.75V0.25ZM11.6107 0.557598C11.4282 0.740092 11.35 0.98163 11.35 1.25H11.85C11.85 1.08087 11.8968 0.978658 11.9643 0.911152L11.6107 0.557598ZM11.35 1.25V2H11.85V1.25H11.35ZM11.6 1.75H1.85V2.25H11.6V1.75ZM1.85 1.75C1.56419 1.75 1.31332 1.855 1.11072 2.0576L1.46428 2.41115C1.57418 2.30125 1.69831 2.25 1.85 2.25V1.75ZM1.11072 2.0576C0.92823 2.24009 0.849998 2.48163 0.849998 2.75H1.35C1.35 2.58087 1.39677 2.47866 1.46428 2.41115L1.11072 2.0576ZM0.849998 2.75V4.25H1.35V2.75H0.849998ZM0.849998 4.25C0.849998 4.51988 0.928448 4.76388 1.09228 4.96867L1.48272 4.65633C1.39655 4.54862 1.35 4.41762 1.35 4.25H0.849998ZM1.13132 5.00772C1.33612 5.17155 1.58012 5.25 1.85 5.25V4.75C1.68238 4.75 1.55138 4.70345 1.44367 4.61728L1.13132 5.00772ZM1.85 5.25H11.6V4.75H1.85V5.25ZM11.35 5V5.75H11.85V5H11.35ZM11.35 5.75C11.35 6.01988 11.4284 6.26388 11.5923 6.46867L11.9827 6.15633C11.8965 6.04862 11.85 5.91762 11.85 5.75H11.35ZM11.6313 6.50772C11.8361 6.67155 12.0801 6.75 12.35 6.75V6.25C12.1824 6.25 12.0514 6.20345 11.9437 6.11728L11.6313 6.50772ZM12.35 6.75H13.85V6.25H12.35V6.75ZM13.85 6.75C14.1184 6.75 14.3599 6.67177 14.5424 6.48928L14.1888 6.13572C14.1213 6.20323 14.0191 6.25 13.85 6.25V6.75ZM14.5424 6.48928C14.745 6.28668 14.85 6.03581 14.85 5.75H14.35C14.35 5.90169 14.2987 6.02582 14.1888 6.13572L14.5424 6.48928ZM14.85 5.75V5H14.35V5.75H14.85ZM14.6 5.25H24.35V4.75H14.6V5.25ZM24.35 5.25C24.6184 5.25 24.8599 5.17177 25.0424 4.98928L24.6889 4.63572C24.6213 4.70323 24.5191 4.75 24.35 4.75V5.25ZM25.0424 4.98928C25.245 4.78668 25.35 4.53581 25.35 4.25H24.85C24.85 4.40169 24.7987 4.52582 24.6889 4.63572L25.0424 4.98928ZM25.35 4.25V2.75H24.85V4.25H25.35ZM25.35 2.75C25.35 2.46339 25.2434 2.21643 25.0218 2.03916L24.7094 2.42959C24.8004 2.50232 24.85 2.59911 24.85 2.75H25.35ZM25.0608 2.0782C24.8836 1.85661 24.6366 1.75 24.35 1.75V2.25C24.5009 2.25 24.5977 2.29964 24.6704 2.39055L25.0608 2.0782Z" />
</svg>
