<svg width="27" height="26" viewBox="0 0 27 26"  xmlns="http://www.w3.org/2000/svg">
  <path
    d="M25.6 14.5H14.4906L21.8969 21.9062C22.0219 22.0625 22.1781 22.1406 22.3656 22.1406C22.5844 22.1406 22.7719 22.0781 22.9281 21.9531C23.8344 21.0781 24.5844 20.0781 25.1781 18.9531C25.7719 17.8281 26.1625 16.625 26.35 15.3438C26.3812 15.125 26.3187 14.9375 26.1625 14.7812C26.0062 14.5938 25.8187 14.5 25.6 14.5ZM24.85 11.4531C24.725 9.60938 24.1781 7.92188 23.2094 6.39062C22.2719 4.82813 21.0219 3.57812 19.4594 2.64062C17.9281 1.67187 16.2406 1.125 14.3969 1C14.1781 1 13.9906 1.07813 13.8344 1.23438C13.6781 1.35938 13.6 1.53125 13.6 1.75V12.25H24.1C24.3187 12.25 24.4906 12.1719 24.6156 12.0156C24.7719 11.8594 24.85 11.6719 24.85 11.4531ZM11.35 14.5V3.39062C11.35 3.14063 11.2562 2.95313 11.0687 2.82812C10.9125 2.67188 10.725 2.60937 10.5062 2.64062C8.6625 2.89062 6.99062 3.5625 5.49062 4.65625C3.99062 5.75 2.81875 7.125 1.975 8.78125C1.1625 10.4375 0.787498 12.2344 0.849998 14.1719C0.912498 16.1094 1.475 17.9219 2.5375 19.6094C3.6 21.2656 4.99062 22.5781 6.70937 23.5469C8.42812 24.5469 10.2719 25.0312 12.2406 25C14.5844 24.9688 16.6937 24.2812 18.5687 22.9375C18.7562 22.8125 18.85 22.625 18.85 22.375C18.8812 22.1562 18.8187 21.9688 18.6625 21.8125L11.35 14.5Z"
    />
  <path
    d="M14.4906 14.5V14.25H13.8871L14.3138 14.6768L14.4906 14.5ZM21.8969 21.9062L22.0921 21.7501L22.0834 21.7393L22.0737 21.7295L21.8969 21.9062ZM22.9281 21.9531L23.0843 22.1483L23.0934 22.1411L23.1018 22.133L22.9281 21.9531ZM26.35 15.3438L26.5974 15.3799L26.5975 15.3791L26.35 15.3438ZM26.1625 14.7812L25.9704 14.9413L25.9777 14.95L25.9857 14.958L26.1625 14.7812ZM24.85 11.4531H25.1V11.4447L25.0994 11.4362L24.85 11.4531ZM23.2094 6.39062L22.9949 6.51928L22.9981 6.52429L23.2094 6.39062ZM19.4594 2.64062L19.3257 2.85195L19.3307 2.855L19.4594 2.64062ZM14.3969 1L14.4138 0.750573L14.4053 0.75H14.3969V1ZM13.8344 1.23438L13.9905 1.42959L14.0014 1.42094L14.0112 1.41115L13.8344 1.23438ZM13.6 12.25H13.35V12.5H13.6V12.25ZM24.6156 12.0156L24.4388 11.8388L24.4291 11.8486L24.4204 11.8595L24.6156 12.0156ZM11.35 14.5H11.1V14.6036L11.1732 14.6768L11.35 14.5ZM11.0687 2.82812L10.892 3.0049L10.9095 3.02241L10.9301 3.03614L11.0687 2.82812ZM10.5062 2.64062L10.5398 2.88836L10.5416 2.88811L10.5062 2.64062ZM1.975 8.78125L1.75221 8.66776L1.75055 8.67114L1.975 8.78125ZM2.5375 19.6094L2.32593 19.7426L2.32708 19.7444L2.5375 19.6094ZM6.70937 23.5469L6.83511 23.3308L6.83213 23.3291L6.70937 23.5469ZM12.2406 25L12.2373 24.75L12.2367 24.75L12.2406 25ZM18.5687 22.9375L18.43 22.7294L18.4231 22.7343L18.5687 22.9375ZM18.85 22.375L18.6025 22.3396L18.6 22.3572V22.375H18.85ZM25.6 14.25H14.4906V14.75H25.6V14.25ZM14.3138 14.6768L21.7201 22.083L22.0737 21.7295L14.6674 14.3232L14.3138 14.6768ZM21.7017 22.0624C21.8704 22.2734 22.0965 22.3906 22.3656 22.3906V21.8906C22.2598 21.8906 22.1733 21.8516 22.0921 21.7501L21.7017 22.0624ZM22.3656 22.3906C22.6355 22.3906 22.8795 22.3122 23.0843 22.1483L22.7719 21.7579C22.6642 21.8441 22.5332 21.8906 22.3656 21.8906V22.3906ZM23.1018 22.133C24.0273 21.2394 24.7932 20.218 25.3992 19.0698L24.957 18.8364C24.3755 19.9382 23.6415 20.9169 22.7545 21.7733L23.1018 22.133ZM25.3992 19.0698C26.0065 17.9192 26.4058 16.6888 26.5974 15.3799L26.1026 15.3076C25.9192 16.5612 25.5373 17.737 24.957 18.8364L25.3992 19.0698ZM26.5975 15.3791C26.6399 15.0825 26.5512 14.8164 26.3393 14.6045L25.9857 14.958C26.0863 15.0586 26.1226 15.1675 26.1025 15.3084L26.5975 15.3791ZM26.3546 14.6212C26.157 14.3841 25.9021 14.25 25.6 14.25V14.75C25.7354 14.75 25.8555 14.8034 25.9704 14.9413L26.3546 14.6212ZM25.0994 11.4362C24.9717 9.55184 24.4121 7.82407 23.4206 6.25696L22.9981 6.52429C23.9442 8.01968 24.4783 9.66691 24.6006 11.47L25.0994 11.4362ZM23.4237 6.262C22.4651 4.66431 21.1857 3.38486 19.588 2.42625L19.3307 2.855C20.8581 3.77139 22.0786 4.99194 22.995 6.51925L23.4237 6.262ZM19.593 2.42936C18.0259 1.43792 16.2982 0.878327 14.4138 0.750573L14.38 1.24943C16.1831 1.37167 17.8303 1.90583 19.3257 2.85189L19.593 2.42936ZM14.3969 0.75C14.1111 0.75 13.8602 0.854999 13.6576 1.0576L14.0112 1.41115C14.1211 1.30125 14.2452 1.25 14.3969 1.25V0.75ZM13.6782 1.03916C13.4566 1.21643 13.35 1.46339 13.35 1.75H13.85C13.85 1.59911 13.8996 1.50232 13.9905 1.42959L13.6782 1.03916ZM13.35 1.75V12.25H13.85V1.75H13.35ZM13.6 12.5H24.1V12H13.6V12.5ZM24.1 12.5C24.3866 12.5 24.6336 12.3934 24.8108 12.1718L24.4204 11.8595C24.3477 11.9504 24.2509 12 24.1 12V12.5ZM24.7924 12.1924C24.995 11.9898 25.1 11.7389 25.1 11.4531H24.6C24.6 11.6048 24.5487 11.7289 24.4388 11.8388L24.7924 12.1924ZM11.6 14.5V3.39062H11.1V14.5H11.6ZM11.6 3.39062C11.6 3.0678 11.473 2.79715 11.2074 2.62011L10.9301 3.03614C11.0395 3.1091 11.1 3.21345 11.1 3.39062H11.6ZM11.2455 2.65135C11.0336 2.43946 10.7675 2.35076 10.4709 2.39314L10.5416 2.88811C10.6825 2.86799 10.7914 2.90429 10.892 3.0049L11.2455 2.65135ZM10.4727 2.39289C8.5879 2.64845 6.87693 3.336 5.34333 4.45425L5.63792 4.85825C7.10432 3.789 8.7371 3.1328 10.5398 2.88836L10.4727 2.39289ZM5.34333 4.45425C3.81152 5.57119 2.61381 6.97653 1.75224 8.66777L2.19776 8.89473C3.02369 7.27347 4.16972 5.92881 5.63792 4.85825L5.34333 4.45425ZM1.75055 8.67114C0.919117 10.366 0.536381 12.2037 0.600128 14.1799L1.09987 14.1638C1.03862 12.265 1.40588 10.509 2.19945 8.89136L1.75055 8.67114ZM0.600128 14.1799C0.664101 16.1631 1.24049 18.0186 2.32594 19.7426L2.74906 19.4762C1.7095 17.8251 1.1609 16.0556 1.09987 14.1638L0.600128 14.1799ZM2.32708 19.7444C3.41167 21.435 4.83243 22.7759 6.58662 23.7647L6.83213 23.3291C5.14882 22.3803 3.78833 21.0962 2.74792 19.4744L2.32708 19.7444ZM6.58365 23.763C8.34133 24.7856 10.2299 25.2819 12.2446 25.25L12.2367 24.75C10.3139 24.7806 8.51492 24.3081 6.8351 23.3308L6.58365 23.763ZM12.244 25.25C14.6379 25.2181 16.7971 24.5147 18.7144 23.1407L18.4231 22.7343C16.5904 24.0478 14.5308 24.7194 12.2373 24.75L12.244 25.25ZM18.7074 23.1455C18.973 22.9685 19.1 22.6978 19.1 22.375H18.6C18.6 22.5522 18.5395 22.6565 18.4301 22.7295L18.7074 23.1455ZM19.0975 22.4104C19.1399 22.1137 19.0512 21.8476 18.8393 21.6357L18.4857 21.9893C18.5863 22.0899 18.6226 22.1988 18.6025 22.3396L19.0975 22.4104ZM18.8393 21.6357L11.5268 14.3232L11.1732 14.6768L18.4857 21.9893L18.8393 21.6357Z"
    />
</svg>
