<svg width="14" height="9" viewBox="0 0 14 9"  xmlns="http://www.w3.org/2000/svg">
  <path d="M13 4.5C12.2083 3.27083 11.2161 2.35156 10.0234 1.74219C10.3411 2.28385 10.5 2.86979 10.5 3.5C10.5 4.46354 10.1563 5.28906 9.46875 5.97656C8.78646 6.65885 7.96354 7 7 7C6.03646 7 5.21094 6.65885 4.52344 5.97656C3.84115 5.28906 3.5 4.46354 3.5 3.5C3.5 2.86979 3.65885 2.28385 3.97656 1.74219C2.78385 2.35156 1.79167 3.27083 1 4.5C1.69271 5.56771 2.5599 6.41927 3.60156 7.05469C4.64844 7.6849 5.78125 8 7 8C8.21875 8 9.34896 7.6849 10.3906 7.05469C11.4375 6.41927 12.3073 5.56771 13 4.5ZM7.26563 1.76562C7.33854 1.69271 7.375 1.60417 7.375 1.5C7.375 1.39583 7.33854 1.30729 7.26563 1.23438C7.19271 1.16146 7.10417 1.125 7 1.125C6.34896 1.125 5.78906 1.35937 5.32031 1.82812C4.85677 2.29167 4.625 2.84896 4.625 3.5C4.625 3.60417 4.66146 3.69271 4.73438 3.76562C4.80729 3.83854 4.89583 3.875 5 3.875C5.10417 3.875 5.19271 3.83854 5.26563 3.76562C5.33854 3.69271 5.375 3.60417 5.375 3.5C5.375 3.05208 5.53385 2.66927 5.85156 2.35156C6.16927 2.03385 6.55208 1.875 7 1.875C7.10417 1.875 7.19271 1.83854 7.26563 1.76562ZM13.8438 3.96094C13.9479 4.14323 14 4.32292 14 4.5C14 4.67708 13.9479 4.85677 13.8438 5.03906C13.1146 6.23698 12.1328 7.19792 10.8984 7.92187C9.66927 8.64062 8.36979 9 7 9C5.63021 9 4.32813 8.63802 3.09375 7.91406C1.86458 7.1901 0.885417 6.23177 0.15625 5.03906C0.0520833 4.85677 0 4.67708 0 4.5C0 4.32292 0.0520833 4.14323 0.15625 3.96094C0.885417 2.76823 1.86458 1.8099 3.09375 1.08594C4.32813 0.361979 5.63021 -7.15256e-07 7 -7.15256e-07C8.36979 -7.15256e-07 9.66927 0.361979 10.8984 1.08594C12.1328 1.8099 13.1146 2.76823 13.8438 3.96094Z"
  />
</svg>
