<svg width="13" height="13" viewBox="0 0 13 13" fill="none" xmlns="http://www.w3.org/2000/svg">
  <path
    d="M8.54297 6.25L12.0586 2.73438C12.2695 2.52344 12.375 2.26563 12.375 1.96094C12.375 1.65625 12.2695 1.38672 12.0586 1.15234L11.2852 0.378906C11.0508 0.167969 10.7812 0.0625 10.4766 0.0625C10.1719 0.0625 9.91406 0.167969 9.70312 0.378906L6.1875 3.89453L2.67188 0.378906C2.46094 0.167969 2.20312 0.0625 1.89844 0.0625C1.59375 0.0625 1.32422 0.167969 1.08984 0.378906L0.316406 1.15234C0.105469 1.38672 0 1.65625 0 1.96094C0 2.26563 0.105469 2.52344 0.316406 2.73438L3.83203 6.25L0.316406 9.76562C0.105469 9.97656 0 10.2344 0 10.5391C0 10.8438 0.105469 11.1133 0.316406 11.3477L1.08984 12.1211C1.32422 12.332 1.59375 12.4375 1.89844 12.4375C2.20312 12.4375 2.46094 12.332 2.67188 12.1211L6.1875 8.60547L9.70312 12.1211C9.91406 12.332 10.1719 12.4375 10.4766 12.4375C10.7812 12.4375 11.0508 12.332 11.2852 12.1211L12.0586 11.3477C12.2695 11.1133 12.375 10.8438 12.375 10.5391C12.375 10.2344 12.2695 9.97656 12.0586 9.76562L8.54297 6.25Z"
  />
</svg>
