<svg width="64" height="48" viewBox="0 0 64 48" fill="none" xmlns="http://www.w3.org/2000/svg">
  <path
    d="M21.75 46.875L0.875 26.125C0.291667 25.5417 0 24.7917 0 23.875C0 22.9583 0.291667 22.2083 0.875 21.625L5.5 17.125C6.08333 16.4583 6.79167 16.125 7.625 16.125C8.54167 16.125 9.33333 16.4583 10 17.125L24 31.125L54 1.125C54.6667 0.458333 55.4167 0.125 56.25 0.125C57.1667 0.125 57.9167 0.458333 58.5 1.125L63.125 5.625C63.7083 6.20833 64 6.95833 64 7.875C64 8.79167 63.7083 9.54167 63.125 10.125L26.25 46.875C25.6667 47.5417 24.9167 47.875 24 47.875C23.0833 47.875 22.3333 47.5417 21.75"/>
</svg>
